<?xml version="1.0" standalone="no"?>
<!DOCTYPE svg PUBLIC "-//W3C//DTD SVG 1.1//EN" "http://www.w3.org/Graphics/SVG/1.1/DTD/svg11.dtd" >
<svg xmlns="http://www.w3.org/2000/svg">
<metadata></metadata>
<defs>
<font id="db_ozone_xbold_italic" horiz-adv-x="0" >
<font-face units-per-em="2048" ascent="1638" descent="-410" />
<missing-glyph horiz-adv-x="428" />
<glyph unicode="&#x2b;&#x2d;" horiz-adv-x="845" d="M811 176l-31 -176h-663l30 176h664zM629 471l-45 -246h-187l45 246h-247l34 186h248l45 248h187l-45 -248h245l-35 -186h-245z" />
<glyph unicode="&#x2e;&#x2e;&#x2e;" horiz-adv-x="1220" d="M113 111q8 49 49 84.5t92 35.5t81 -35.5t21 -84.5q-10 -51 -53 -87t-94 -36t-78.5 36t-17.5 87zM907 111q8 49 50 84.5t94 35.5q49 0 78.5 -35.5t21.5 -84.5q-10 -51 -53 -87t-92 -36q-51 0 -80 36t-19 87zM512 111q8 49 49 84.5t92 35.5t80 -35.5t21 -84.5 q-10 -51 -52.5 -87t-93.5 -36t-78.5 36t-17.5 87z" />
<glyph unicode="&#x3c;&#x3d;" horiz-adv-x="905" d="M877 266l-697 297l29 148l805 299l-37 -201l-498 -172l434 -170zM78 0l33 186h749l-33 -186h-749z" />
<glyph unicode="&#x3e;&#x3d;" horiz-adv-x="905" d="M164 467l495 170l-432 172l37 201l694 -299l-28 -148l-803 -297zM78 0l33 186h749l-33 -186h-749z" />
<glyph unicode="&#xe4f;&#x22;" horiz-adv-x="1089" d="M520 967l43 297h166l-67 -297h-142zM774 967l43 297h166l-68 -297h-141zM528 432q-8 -41 14.5 -68.5t63.5 -27.5q39 0 72 27.5t41 68.5q6 39 -16.5 66.5t-61.5 27.5q-41 0 -74 -27.5t-39 -66.5zM401 432q8 45 34 85t61.5 70.5t80 48t89.5 17.5t81.5 -17.5t61.5 -48 t35 -70.5t2 -85t-34 -86t-61.5 -71.5t-79.5 -48t-89 -17.5t-82 17.5t-61.5 48t-35 71.5t-2.5 86zM303 432q-12 -66 2 -124t50 -102t90.5 -69.5t119.5 -25.5q68 0 130.5 25.5t114.5 69.5t88 102.5t48 123.5q12 66 -2 124t-50 102t-89 70t-121 26q-66 0 -129 -26t-115.5 -70 t-88.5 -102t-48 -124zM160 432q18 98 69.5 182t126 147.5t165.5 99.5t190 36q98 0 176 -36t129 -99.5t71.5 -147.5t2.5 -182t-70.5 -182t-126.5 -147.5t-165 -99.5t-189 -36t-176 36t-129.5 99.5t-71.5 147.5t-2 182z" />
<glyph unicode="&#xe0e;&#xe3a;" horiz-adv-x="962" d="M393 219q-14 -74 -52 -118t-85 -67.5t-95 -29.5t-85 -6l-4 180q37 -2 60.5 4t35.5 15.5t16 19.5t6 21l46 241l-58 111q98 125 210 186.5t245 61.5q193 0 270.5 -86t48.5 -246l-114 -627q-8 -39 -25.5 -68.5t-38 -49t-40 -31t-29.5 -15.5q-72 -29 -138 0l-143 66 q-14 6 -27 0l-221 -98l-92 141l301 133q31 14 56.5 15t60.5 -15l116 -53q16 -4 19 12l106 576q16 88 -21.5 125.5t-123.5 37.5q-45 0 -89 -12t-91 -47l35 -64zM539 -504q10 49 51 84t90 35t77.5 -35t18.5 -84t-51 -84t-90 -35t-77.5 35t-18.5 84z" />
<glyph unicode="&#xe0f;&#xe3a;" horiz-adv-x="962" d="M743 494q16 88 -21.5 124.5t-123.5 36.5q-45 0 -89 -11t-89 -46l33 -63l-60 -316q-14 -74 -52 -118t-85 -66.5t-95 -28.5t-85 -6l-4 178q72 -4 93 16.5t25 43.5l46 241l-58 111q98 125 210 186.5t245 61.5q193 0 270.5 -86t48.5 -246l-116 -629q-6 -33 -22.5 -64.5 t-43.5 -57t-61.5 -42t-75.5 -16.5q-37 0 -72 20l-100 60q-6 6 -19 0l-106 -58q-43 -23 -76 -18.5t-55 20.5l-205 156l201 103l100 -80q8 -6 18 0l103 55q35 16 66.5 15t60.5 -15l74 -45q14 -4 14 10zM539 -504q10 49 51 84t90 35t77.5 -35t18.5 -84t-51 -84t-90 -35 t-77.5 35t-18.5 84z" />
<glyph unicode="&#xe0e;&#xe38;" horiz-adv-x="962" d="M393 219q-14 -74 -52 -118t-85 -67.5t-95 -29.5t-85 -6l-4 180q37 -2 60.5 4t35.5 15.5t16 19.5t6 21l46 241l-58 111q98 125 210 186.5t245 61.5q193 0 270.5 -86t48.5 -246l-114 -627q-8 -39 -25.5 -68.5t-38 -49t-40 -31t-29.5 -15.5q-72 -29 -138 0l-143 66 q-14 6 -27 0l-221 -98l-92 141l301 133q31 14 56.5 15t60.5 -15l116 -53q16 -4 19 12l106 576q16 88 -21.5 125.5t-123.5 37.5q-45 0 -89 -12t-91 -47l35 -64zM559 -588q6 23 -10 23h-72l31 166h86q53 0 88 -7.5t53.5 -29t21.5 -60.5t-9 -102l-27 -145h-191z" />
<glyph unicode="&#xe0f;&#xe38;" horiz-adv-x="962" d="M743 494q16 88 -21.5 124.5t-123.5 36.5q-45 0 -89 -11t-89 -46l33 -63l-60 -316q-14 -74 -52 -118t-85 -66.5t-95 -28.5t-85 -6l-4 178q72 -4 93 16.5t25 43.5l46 241l-58 111q98 125 210 186.5t245 61.5q193 0 270.5 -86t48.5 -246l-116 -629q-6 -33 -22.5 -64.5 t-43.5 -57t-61.5 -42t-75.5 -16.5q-37 0 -72 20l-100 60q-6 6 -19 0l-106 -58q-43 -23 -76 -18.5t-55 20.5l-205 156l201 103l100 -80q8 -6 18 0l103 55q35 16 66.5 15t60.5 -15l74 -45q14 -4 14 10zM559 -588q6 23 -10 23h-72l31 166h86q53 0 88 -7.5t53.5 -29t21.5 -60.5 t-9 -102l-27 -145h-191z" />
<glyph unicode="&#xe0e;&#xe39;" horiz-adv-x="962" d="M393 219q-14 -74 -52 -118t-85 -67.5t-95 -29.5t-85 -6l-4 180q37 -2 60.5 4t35.5 15.5t16 19.5t6 21l46 241l-58 111q98 125 210 186.5t245 61.5q193 0 270.5 -86t48.5 -246l-114 -627q-8 -39 -25.5 -68.5t-38 -49t-40 -31t-29.5 -15.5q-72 -29 -138 0l-143 66 q-14 6 -27 0l-221 -98l-92 141l301 133q31 14 56.5 15t60.5 -15l116 -53q16 -4 19 12l106 576q16 88 -21.5 125.5t-123.5 37.5q-45 0 -89 -12t-91 -47l35 -64zM340 -561q0 4 -6 4h-60l29 156h96q84 0 107.5 -34t9.5 -116q-4 -10 -2 -5t0 -5t4 -18.5t23 -8.5q16 0 25 8.5 t12 18.5l28 160h180l-28 -160q-16 -86 -86 -137.5t-158 -51.5q-92 0 -140 51.5t-34 135.5v2z" />
<glyph unicode="&#xe0f;&#xe39;" horiz-adv-x="962" d="M743 494q16 88 -21.5 124.5t-123.5 36.5q-45 0 -89 -11t-89 -46l33 -63l-60 -316q-14 -74 -52 -118t-85 -66.5t-95 -28.5t-85 -6l-4 178q72 -4 93 16.5t25 43.5l46 241l-58 111q98 125 210 186.5t245 61.5q193 0 270.5 -86t48.5 -246l-116 -629q-6 -33 -22.5 -64.5 t-43.5 -57t-61.5 -42t-75.5 -16.5q-37 0 -72 20l-100 60q-6 6 -19 0l-106 -58q-43 -23 -76 -18.5t-55 20.5l-205 156l201 103l100 -80q8 -6 18 0l103 55q35 16 66.5 15t60.5 -15l74 -45q14 -4 14 10zM340 -561q0 4 -6 4h-60l29 156h96q84 0 107.5 -34t9.5 -116q-4 -10 -2 -5 t0 -5t4 -18.5t23 -8.5q16 0 25 8.5t12 18.5l28 160h180l-28 -160q-16 -86 -86 -137.5t-158 -51.5q-92 0 -140 51.5t-34 135.5v2z" />
<glyph unicode="&#xd;" horiz-adv-x="485" />
<glyph unicode=" "  horiz-adv-x="428" />
<glyph unicode="&#x09;" horiz-adv-x="428" />
<glyph unicode="&#xa0;" horiz-adv-x="428" />
<glyph unicode="!" horiz-adv-x="491" d="M418 340h-172l100 692h227zM176 102q8 47 47 79t86 32t73 -31.5t17 -79.5q-10 -47 -47 -79.5t-84 -32.5t-74.5 32.5t-17.5 79.5z" />
<glyph unicode="&#x22;" horiz-adv-x="718" d="M559 731l59 322h189l-59 -322h-189zM242 731l59 322h188l-59 -322h-188z" />
<glyph unicode="#" horiz-adv-x="1042" d="M926 596l-45 -135h98l-35 -191h-129l-92 -270h-213l94 270h-151l-93 -270h-215l95 270h-99l35 191h131l43 135h-98l37 190h129l82 250h217l-86 -250h147l88 250h211l-84 -250h99l-37 -190h-129zM565 596l-49 -135h150l49 135h-150z" />
<glyph unicode="$" horiz-adv-x="880" d="M879 305q-25 -133 -126.5 -212t-242.5 -95l-29 -162h-159l28 154q-104 4 -181 36.5t-136 106.5l168 139q37 -47 88 -67.5t114 -22.5l46 242l-35 8q-127 16 -189.5 87t-38.5 202q23 123 118 208t239 103l24 129h160l-25 -127q168 -12 267 -123l-162 -135q-31 35 -74 51.5 t-84 20.5l-43 -232q10 -2 22.5 -5t22.5 -5q137 -20 196 -90t32 -211zM526 846q-57 -10 -90 -43t-41 -74q-4 -16 -1 -33.5t16 -33.5q29 -31 75 -37zM666 303q10 51 -15 76q-16 16 -36.5 24.5t-45.5 12.5l-43 -232q122 23 140 119z" />
<glyph unicode="%" horiz-adv-x="1306" d="M1249 195q-18 -100 -92 -152.5t-162 -52.5t-142 52t-36 153l27 141q18 98 91 149.5t161 51.5t143 -51.5t37 -149.5zM489 0h-165l682 1026h163zM649 692q-18 -100 -92 -150t-162 -50t-142 50t-36 150l27 142q18 102 91 152t161 50t143 -50t37 -152zM1122 328q14 74 -51 73 q-66 0 -80 -73l-22 -127q-8 -37 6 -55.5t45 -18.5q63 0 80 74zM522 827q14 74 -51 74q-66 0 -80 -74l-22 -129q-8 -35 6 -54t45 -19q63 0 80 73z" />
<glyph unicode="&#x26;" horiz-adv-x="1118" d="M784 0l-59 86q-20 -14 -47 -30.5t-60.5 -31t-76.5 -24.5t-97 -10q-174 0 -244.5 85t-43.5 230q8 47 32.5 88t56 75t69.5 61.5t75 50.5q-25 35 -49.5 87t-9.5 124q20 109 106 177t221 68q123 0 182.5 -69.5t39.5 -178.5q-10 -59 -47 -101t-97 -81q-12 -10 -24 -18 q-10 -8 -24.5 -15.5t-24.5 -13.5q31 -47 64.5 -94t64.5 -94q20 31 42.5 78t32.5 94h193q-47 -203 -164 -320l149 -223h-260zM686 786q6 35 -9 55.5t-50 20.5q-41 0 -64.5 -20.5t-30.5 -55.5q-4 -25 10.5 -49t32.5 -53q6 4 14.5 7t14.5 7q8 4 14 11q23 16 43.5 35t24.5 42z M475 455q-47 -29 -78.5 -62t-42.5 -86q-10 -59 26 -95t95 -36q43 0 79 11.5t75 37.5z" />
<glyph unicode="'" horiz-adv-x="407" d="M242 739l61 322h191l-62 -322h-190z" />
<glyph unicode="(" horiz-adv-x="456" d="M244 -145q-33 39 -60.5 75.5t-46.5 83.5q-18 47 -16 97.5t12 101.5l129 694q10 53 26.5 102.5t51.5 96.5t77 84t89 78l108 -135q-33 -29 -55 -49.5t-49 -55.5q-31 -41 -47 -129l-125 -676q-18 -86 -2 -131q14 -35 28.5 -55.5t36.5 -48.5z" />
<glyph unicode=")" horiz-adv-x="456" d="M41 -12q33 29 56.5 49t49.5 55q29 45 48 131l124 676q14 86 3 129q-14 35 -30 55.5t-38 49.5l158 135q33 -41 60.5 -78t47.5 -84q16 -47 15.5 -96t-11.5 -103l-129 -694q-10 -51 -26.5 -101.5t-51.5 -97.5q-37 -47 -78.5 -83.5t-88.5 -75.5z" />
<glyph unicode="*" horiz-adv-x="753" d="M705 551l-144 102l-29 -192h-143l45 192l-186 -102l-45 123l186 88l-151 90l90 125l147 -103l27 193h143l-43 -193l182 103l50 -125l-191 -90l156 -88z" />
<glyph unicode="+" horiz-adv-x="897" d="M604 332l-47 -248h-186l47 248h-248l33 186h248l47 246h186l-47 -246h246l-33 -186h-246z" />
<glyph unicode="," horiz-adv-x="415" d="M53 -254l86 473h221l-55 -303z" />
<glyph unicode="-" horiz-adv-x="688" d="M166 330l35 186h475l-35 -186h-475z" />
<glyph unicode="." horiz-adv-x="425" d="M113 113q10 51 51 87t92 36t81 -36t19 -87q-10 -49 -52 -85t-93 -36t-79.5 36t-18.5 85z" />
<glyph unicode="/" horiz-adv-x="598" d="M154 -113h-189l690 1356h189z" />
<glyph unicode="0" horiz-adv-x="780" d="M766 303q-14 -76 -51 -134t-88.5 -98t-112.5 -60.5t-125 -20.5q-66 0 -120 20.5t-91 60.5t-52 98t-1 134l78 426q14 76 51 133.5t88 96t112.5 58t127.5 19.5q63 0 117.5 -19.5t91 -58t52 -96t1.5 -133.5zM641 725q12 61 -13.5 95t-78.5 34q-51 0 -90 -34t-51 -95 l-78 -422q-10 -61 15.5 -95t76.5 -34q53 0 92 34t49 95z" />
<glyph unicode="1" horiz-adv-x="780" d="M356 0l148 803l-240 -178l41 221l244 182h201l-191 -1028h-203z" />
<glyph unicode="2" horiz-adv-x="780" d="M70 0l32 178l467 445q29 29 47.5 55.5t24.5 60.5q10 53 -14.5 84t-77.5 31q-47 0 -88 -27.5t-55 -99.5h-203q14 74 49 131t86 97t113.5 60.5t130.5 20.5q70 0 124 -20.5t89.5 -58t49 -94t1.5 -126.5q-14 -78 -53 -127t-105 -112l-334 -316h389l-32 -182h-641z" />
<glyph unicode="3" horiz-adv-x="780" d="M774 303q-14 -80 -52 -139.5t-90 -97t-115.5 -57t-131.5 -19.5q-66 0 -122 17.5t-95 56t-56.5 98t-2.5 143.5h200q-10 -68 23 -99.5t86 -31.5q57 0 100 34t53 97q12 61 -16.5 98t-93.5 37h-35l33 176h35q66 0 99.5 33t43.5 86q10 59 -18.5 89t-75.5 30q-49 0 -88 -31.5 t-54 -87.5h-202q14 72 51 128.5t87 94t111.5 58t126.5 20.5q141 0 216 -82t53 -213q-16 -80 -56 -130t-92 -79q45 -31 69.5 -85t8.5 -144z" />
<glyph unicode="4" horiz-adv-x="780" d="M672 143l-25 -143h-194l24 143h-420l37 189l484 696h223l-482 -692h195l35 188h194l-34 -188h94l-37 -193h-94z" />
<glyph unicode="5" horiz-adv-x="780" d="M776 350q-14 -76 -45 -141.5t-79 -114.5t-113.5 -76.5t-151.5 -27.5q-147 0 -211.5 81t-50.5 228h199q-10 -125 96 -125q25 0 47 7t43 26q29 23 42 58.5t23 84.5q16 82 -3 129t-83 47q-53 0 -84.5 -27.5t-46.5 -56.5h-186l109 586h600l-35 -182h-414l-35 -191 q27 16 67 28.5t87 12.5q76 0 126 -26.5t76.5 -72.5t31.5 -109.5t-9 -137.5z" />
<glyph unicode="6" horiz-adv-x="780" d="M788 328q-14 -80 -52 -143.5t-91 -106.5t-119.5 -65.5t-138.5 -22.5t-129 22.5t-96 64.5t-53.5 104.5t0.5 142.5q14 78 54 146.5t89 141.5l283 416h225l-268 -387q23 4 38 5t31 1q55 0 102.5 -21.5t80 -62.5t45.5 -100t-1 -135zM584 326q12 70 -18.5 108.5t-90.5 38.5 q-59 0 -104 -38t-58 -109q-14 -72 16.5 -112t90.5 -40q59 0 104.5 40t59.5 112z" />
<glyph unicode="7" horiz-adv-x="780" d="M387 0h-221l487 846h-250l-26 -150h-195l62 332h665l-35 -178z" />
<glyph unicode="8" horiz-adv-x="780" d="M780 303q-14 -78 -51 -136t-89 -98t-116.5 -59.5t-134.5 -19.5q-72 0 -129 19.5t-96 59.5t-54.5 98t-0.5 136q16 92 66 145.5t99 81.5q-16 14 -32.5 34t-26.5 46.5t-14 59t4 73.5q12 70 48 124.5t87 92t113.5 57t128.5 19.5q63 0 117.5 -19.5t91 -57t53 -92t4.5 -124.5 q-16 -82 -60.5 -133t-87.5 -80q37 -29 66.5 -82t13.5 -145zM643 737q10 51 -16.5 84t-77.5 33q-53 0 -94 -33t-52 -84q-10 -55 19 -88t82 -33q51 0 90 33t49 88zM575 305q10 55 -19.5 95t-84.5 40q-59 0 -104 -40t-56 -95q-10 -55 20.5 -93t90.5 -38q55 0 99 38t54 93z" />
<glyph unicode="9" horiz-adv-x="780" d="M178 700q14 80 52 142.5t92.5 106.5t121 66.5t138.5 22.5t129 -22.5t95 -64.5t52 -104.5t0 -141.5q-14 -78 -54 -147t-89 -142l-281 -416h-225l268 387q-25 -4 -40 -5t-31 -1q-55 0 -102.5 21.5t-80.5 62.5t-46 100t1 135zM383 702q-12 -70 18.5 -108.5t92.5 -38.5 q59 0 103 38t56 109q14 72 -15.5 112t-88.5 40t-105.5 -40t-60.5 -112z" />
<glyph unicode=":" horiz-adv-x="471" d="M156 113q10 49 51 84.5t92 35.5t80 -35.5t18 -84.5q-10 -51 -51 -87t-92 -36t-79.5 36t-18.5 87zM240 569q10 51 51 86t92 35t80 -34.5t18 -86.5q-10 -51 -51 -85.5t-92 -34.5t-79.5 34.5t-18.5 85.5z" />
<glyph unicode=";" horiz-adv-x="471" d="M100 -254l86 473h220l-56 -303zM242 569q10 51 51 86t92 35t80 -34.5t18 -86.5q-10 -51 -51 -85.5t-92 -34.5t-79.5 34.5t-18.5 85.5z" />
<glyph unicode="&#x3c;" horiz-adv-x="923" d="M866 102l-714 297l26 148l826 299l-37 -201l-510 -172l446 -170z" />
<glyph unicode="=" horiz-adv-x="884" d="M195 498l34 188h682l-34 -188h-682zM131 164l35 186h682l-35 -186h-682z" />
<glyph unicode="&#x3e;" horiz-adv-x="923" d="M133 303l506 170l-442 172l36 201l715 -299l-26 -148l-826 -297z" />
<glyph unicode="?" horiz-adv-x="735" d="M817 750q-10 -53 -37.5 -97.5t-68.5 -87.5l-144 -151q-8 -8 -14 -24.5t-10 -33.5l-8 -37h-203l10 50q10 47 28.5 80.5t57.5 74.5l129 135q23 23 39 46.5t20 46.5q8 47 -15 77.5t-75 30.5q-53 0 -84.5 -34.5t-42.5 -84.5h-202q12 70 47 126.5t84 95t109.5 59t123.5 20.5 q61 0 113.5 -19t88.5 -56t51 -92t3 -125zM283 102q8 47 46 79t85 32t73.5 -31.5t18.5 -79.5q-10 -47 -48 -79.5t-85 -32.5t-73.5 32.5t-16.5 79.5z" />
<glyph unicode="@" horiz-adv-x="1345" d="M944 205q-41 0 -72.5 19.5t-50.5 41.5q-53 -33 -99 -44t-89 -11q-61 0 -100 26.5t-57.5 69.5t-16.5 97.5t22 111.5q20 59 53 111.5t78 91.5t100.5 61.5t121.5 22.5q78 0 114 -37q0 14 8 22h154l-133 -366q-4 -10 -9 -23.5t-6 -26t2 -21.5t13 -9q37 -4 69.5 11.5t60.5 42 t48.5 62.5t30.5 74q23 86 11.5 160t-54.5 129.5t-114 87t-165 31.5q-88 0 -171 -33t-151.5 -90t-117.5 -135t-70 -168q-20 -92 -0.5 -171t65.5 -135t113.5 -89t145.5 -33q68 0 152.5 17.5t168.5 64.5l78 -115q-111 -72 -223.5 -96.5t-204.5 -24.5q-125 0 -222 47.5 t-159.5 127t-84 185t2.5 222.5q25 121 92.5 226.5t163 184.5t211 124t238.5 45q127 0 225 -42t158.5 -118t80 -178.5t-11.5 -223.5q-16 -63 -51 -121.5t-86 -104.5t-117.5 -73.5t-144.5 -27.5zM854 516q8 23 16.5 50.5t6 51t-17.5 40t-50 16.5q-72 0 -116 -52.5t-66 -119.5 q-10 -20 -15.5 -48t-2.5 -52.5t17.5 -42t45.5 -17.5q78 0 117.5 51t64.5 123z" />
<glyph unicode="A" horiz-adv-x="931" d="M700 0l-24 178h-354q-25 -45 -49.5 -90t-47.5 -88h-223l567 1028h168l191 -1028h-228zM598 696l-182 -336h231z" />
<glyph unicode="B" horiz-adv-x="952" d="M920 301q-29 -147 -133.5 -224t-245.5 -77h-416l190 1028h402q152 0 222.5 -78t45.5 -213q-14 -80 -62.5 -133t-91.5 -76q20 -12 40 -30.5t33.5 -46t18.5 -64.5t-3 -86zM768 729q10 49 -17.5 79t-86.5 30h-172l-39 -217h172q59 0 96 28.5t47 79.5zM705 307 q10 51 -14.5 85t-90.5 34h-184l-43 -233h184q66 0 103 33.5t45 80.5z" />
<glyph unicode="C" horiz-adv-x="911" d="M905 317q-27 -80 -72 -141t-102 -103t-124.5 -62.5t-139.5 -20.5q-86 0 -150.5 30.5t-107.5 83.5q-33 39 -46 83t-13 94.5t10 107.5t22 125q12 66 24.5 123t31 108.5t47 95.5t75.5 83q133 117 302 116q145 0 233 -86t84 -252h-215q-4 61 -36 103.5t-103 42.5 q-78 0 -131 -53q-16 -16 -28.5 -34t-23 -48.5t-21.5 -77.5t-26 -121q-12 -72 -19 -119t-7 -77.5t5 -50t17 -34.5q16 -23 44 -37t67 -14q72 0 120 42t72 104h207z" />
<glyph unicode="D" horiz-adv-x="983" d="M979 520q-18 -100 -48 -193.5t-83 -166t-136 -116.5t-210 -44h-377l190 1028h377q123 0 190.5 -42t95.5 -112.5t23.5 -162t-22.5 -191.5zM766 520q14 76 21.5 134.5t-4 99.5t-45 62.5t-101.5 21.5h-145l-119 -645h145q70 0 112 22.5t67.5 64.5t40 102t28.5 138z" />
<glyph unicode="E" horiz-adv-x="858" d="M125 0l190 1028h691l-37 -190h-477l-41 -222h407l-35 -192h-407l-43 -231h477l-35 -193h-690z" />
<glyph unicode="F" horiz-adv-x="800" d="M492 838l-43 -234h382l-34 -192h-383l-76 -412h-213l190 1028h668l-37 -190h-454z" />
<glyph unicode="G" horiz-adv-x="937" d="M938 424q-23 -115 -57.5 -186.5t-98.5 -126.5q-76 -66 -153.5 -93.5t-161.5 -27.5q-86 0 -150.5 30.5t-107.5 83.5q-33 39 -46 83t-13 94.5t10 107.5t22 125q12 66 24.5 123t31 108.5t47 95.5t75.5 83q66 57 139.5 86.5t162.5 29.5q90 0 153.5 -27.5t102 -75.5t56 -109.5 t15.5 -129.5h-215q-4 72 -41 111t-108 39q-41 0 -74 -15.5t-57 -37.5q-16 -16 -29.5 -35t-24 -49.5t-21.5 -77.5t-24 -119q-12 -72 -19 -119t-8 -77.5t5 -50t18 -34.5q16 -23 43 -37t68 -14q43 0 78.5 16.5t64.5 41.5q55 47 72 129l6 30h-186l32 181h398l-29 -156v0z" />
<glyph unicode="H" horiz-adv-x="1015" d="M676 0l78 426h-338l-78 -426h-213l190 1028h213l-77 -412h337l78 412h215l-190 -1028h-215z" />
<glyph unicode="I" horiz-adv-x="483" d="M135 0l191 1028h213l-191 -1028h-213z" />
<glyph unicode="J" horiz-adv-x="702" d="M645 340q-16 -86 -58 -150.5t-100.5 -109.5t-129 -67.5t-144.5 -22.5q-84 0 -144.5 25.5t-107.5 86.5l168 142q20 -27 46 -44.5t73 -17.5q72 0 120 42t64 126l127 678h215l-129 -688v0z" />
<glyph unicode="K" horiz-adv-x="972" d="M725 0l-178 455l-154 -148l-55 -307h-213l190 1028h213l-79 -424l430 424h266l-426 -410l256 -618h-250z" />
<glyph unicode="L" horiz-adv-x="788" d="M125 0l190 1028h213l-155 -835h438l-35 -193h-651z" />
<glyph unicode="M" horiz-adv-x="1193" d="M854 0l107 582l-250 -361h-144l-123 359l-106 -580h-213l190 1028h195l172 -555l381 555h197l-191 -1028h-215z" />
<glyph unicode="N" horiz-adv-x="1075" d="M776 0l-321 637l-117 -637h-213l190 1028h172l318 -631l119 631h217l-191 -1028h-174z" />
<glyph unicode="O" horiz-adv-x="942" d="M948 514q-12 -68 -24.5 -125t-32 -107.5t-48 -94.5t-73.5 -83q-66 -53 -138.5 -83.5t-162.5 -30.5q-88 0 -151.5 30.5t-106.5 83.5q-33 39 -46 83t-13 94.5t10 107.5t22 125q12 66 24.5 123t31 108.5t47 95.5t75.5 83q66 57 139.5 86.5t162.5 29.5q90 0 152.5 -29.5 t105.5 -86.5q31 -39 44 -83t13 -95.5t-9.5 -108.5t-21.5 -123zM735 514q12 72 18.5 119t6.5 77.5t-5 49t-18 35.5q-16 23 -42.5 38t-67.5 15q-39 0 -73 -15.5t-58 -37.5q-16 -16 -29.5 -35t-24 -49.5t-21.5 -77.5t-24 -119q-12 -72 -19 -118t-7 -76.5t5 -50t17 -33.5 q16 -23 44 -38.5t67 -15.5q41 0 73.5 15.5t57.5 38.5q16 14 29.5 33.5t24.5 50t22.5 76.5t23.5 118z" />
<glyph unicode="P" horiz-adv-x="886" d="M985 707q-12 -68 -47 -126.5t-87 -103.5t-120.5 -70.5t-148.5 -25.5h-174l-70 -381h-213l190 1028h387q80 0 138.5 -25.5t95.5 -69.5t49 -102t0 -124zM770 707q12 59 -19.5 95t-97.5 36h-161l-48 -263h162q66 0 110 36.5t54 95.5z" />
<glyph unicode="Q" horiz-adv-x="942" d="M758 -47l-72 92q-49 -27 -102.5 -41t-112.5 -14q-88 0 -150.5 30.5t-109.5 83.5q-33 39 -45 83t-12 94.5t9 107.5t21 125q12 66 24.5 123t31 108.5t47 95.5t75.5 83q133 117 304 116q170 0 256 -116q33 -39 46 -83t13 -95.5t-9 -108.5t-22 -123q-23 -113 -46 -199 t-81 -157l72 -88zM737 514q12 72 18.5 119t6.5 77.5t-5 49t-18 35.5q-16 23 -42.5 38t-67.5 15q-39 0 -73 -15.5t-58 -37.5q-16 -16 -29.5 -35t-24 -49.5t-21.5 -77.5t-24 -119q-12 -72 -19 -118t-7 -76.5t5 -50t17 -33.5q16 -23 44 -38.5t67 -15.5q14 0 29.5 4t25.5 9 l-69 86l137 116l59 -71q14 31 25.5 76.5t23.5 111.5z" />
<glyph unicode="R" horiz-adv-x="952" d="M672 0l-127 403h-133l-74 -403h-213l190 1028h410q80 0 139.5 -25.5t94 -68.5t47 -100.5t0.5 -122.5q-10 -49 -33 -92.5t-55.5 -77t-70.5 -59t-75 -40.5l150 -442h-250zM788 711q10 57 -19.5 92t-92.5 35h-184l-46 -250h185q63 0 105 34t52 89z" />
<glyph unicode="S" horiz-adv-x="839" d="M840 305q-14 -76 -54.5 -134t-100.5 -98t-134 -61.5t-156 -21.5q-121 0 -208 31.5t-152 111.5l166 139q41 -49 100 -69.5t129 -20.5q86 0 136 32t61 89q10 53 -16.5 78t-78.5 35l-118 16q-127 20 -188.5 88t-37.5 203q27 141 137.5 228t284.5 87q106 0 183 -29.5 t137 -95.5l-164 -135q-41 47 -95.5 59.5t-101.5 12.5q-78 0 -118.5 -35t-51.5 -84q-10 -49 20 -74.5t77 -31.5l118 -17q129 -20 191 -93t35 -210z" />
<glyph unicode="T" horiz-adv-x="757" d="M641 842l-156 -842h-215l156 842h-266l35 186h749l-35 -186h-268z" />
<glyph unicode="U" horiz-adv-x="995" d="M944 354q-16 -82 -57 -148.5t-101.5 -114.5t-135.5 -74.5t-154 -26.5q-80 0 -145.5 26.5t-108.5 74.5t-60.5 114.5t-1.5 148.5l125 674h217l-125 -666q-16 -86 20 -133t113 -47q78 0 131.5 47t69.5 133l125 666h213l-125 -674v0z" />
<glyph unicode="V" horiz-adv-x="886" d="M524 0h-162l-155 1028h225l82 -639l320 639h227z" />
<glyph unicode="W" horiz-adv-x="1304" d="M1014 0h-154l-88 641l-330 -641h-151l-88 1028h225l39 -614l295 614h162l65 -614l271 614h223z" />
<glyph unicode="X" horiz-adv-x="876" d="M631 0l-131 346l-256 -346h-246l420 528l-211 500h246l114 -319l238 319h242l-398 -500l230 -528h-248z" />
<glyph unicode="Y" horiz-adv-x="862" d="M616 422l-77 -422h-215l77 422l-200 606h237l111 -393l258 393h235z" />
<glyph unicode="Z" horiz-adv-x="835" d="M74 0l30 168l555 670h-413l37 190h669l-30 -164l-557 -671h432l-35 -193h-688z" />
<glyph unicode="[" horiz-adv-x="579" d="M106 -190l283 1519h381l-37 -192h-168l-209 -1137h168l-37 -190h-381z" />
<glyph unicode="\" horiz-adv-x="636" d="M229 1323h201l201 -1444h-201z" />
<glyph unicode="]" horiz-adv-x="579" d="M18 -190l37 190h168l209 1137h-168l37 192h381l-283 -1519h-381z" />
<glyph unicode="^" horiz-adv-x="870" d="M692 541l-102 290l-213 -290h-209l369 508h184l180 -508h-209z" />
<glyph unicode="_" horiz-adv-x="829" d="M-53 -293l24 133h828l-25 -133h-827z" />
<glyph unicode="`" horiz-adv-x="806" d="M502 791l-140 266h203l113 -266h-176z" />
<glyph unicode="a" horiz-adv-x="784" d="M498 0l12 68q-47 -39 -93 -57.5t-114 -18.5q-53 0 -98 16.5t-75 47t-42 76.5t-2 106q8 45 31.5 88t62.5 74.5t92.5 51t120.5 19.5h187l6 29q12 66 -17.5 95.5t-107.5 29.5q-51 0 -89 -17.5t-75 -46.5l-98 119q68 55 138.5 80.5t162.5 25.5q330 0 280 -274l-94 -512h-188z M551 319h-156q-53 0 -83.5 -18t-39.5 -61q-8 -41 15.5 -65.5t79.5 -24.5q41 0 71.5 7t61.5 31q33 31 45 99z" />
<glyph unicode="b" horiz-adv-x="831" d="M848 391q-12 -72 -36 -142.5t-64.5 -129t-104 -94t-158.5 -35.5q-63 0 -107 19.5t-79 64.5l-12 -74h-187l207 1126h195l-76 -415q47 41 96 58t111 17q86 0 136 -31.5t72.5 -85t21.5 -126t-15 -152.5zM647 391q8 47 10 87t-9 70t-35.5 47t-69.5 17q-47 0 -77 -17 t-49.5 -47t-30.5 -70t-19 -87q-10 -47 -13.5 -88t5 -71.5t32 -48t70.5 -17.5q88 0 128 64.5t58 160.5z" />
<glyph unicode="c" horiz-adv-x="741" d="M709 96q-121 -106 -279 -106q-59 0 -117.5 18.5t-101.5 64.5t-61.5 122.5t4.5 195.5q20 117 67 194t107.5 122t125 62t124.5 17q158 0 239 -102l-158 -133q-43 61 -114 61q-45 0 -78 -19.5t-57.5 -51t-39 -71.5t-22.5 -79q-6 -37 -7 -76t11.5 -72.5t38 -55t72.5 -21.5 q39 0 70.5 13.5t66.5 47.5l109 -131v0z" />
<glyph unicode="d" horiz-adv-x="831" d="M127 391q14 80 40 152.5t69 126t105 85t148 31.5q61 0 104.5 -17t74.5 -58l75 415h195l-207 -1126h-186l12 74q-49 -45 -100 -64.5t-115 -19.5q-94 0 -144.5 35.5t-71 94t-16 129t16.5 142.5zM328 391q-10 -47 -11.5 -88t9 -71.5t36 -48t70.5 -17.5t76 17.5t49 48 t29.5 71.5t21.5 88q8 47 12.5 87t-4 70t-33 47t-69.5 17t-76.5 -17t-53.5 -47t-35 -70t-21 -87z" />
<glyph unicode="e" horiz-adv-x="790" d="M303 330q-14 -76 24 -125t117 -49q66 0 107 17t86 56l98 -116q-72 -59 -144.5 -91t-178.5 -32q-70 0 -132.5 18.5t-105.5 64.5t-59.5 122.5t6.5 195.5q18 94 57 168t94.5 124t123 76.5t145.5 26.5q82 0 140 -27.5t92 -77.5t44 -117.5t-4 -147.5l-16 -86h-494zM627 463 q12 61 -16.5 111.5t-100.5 50.5q-70 0 -116 -46.5t-66 -115.5h299z" />
<glyph unicode="f" horiz-adv-x="430" d="M406 629l-115 -629h-195l115 629h-80l29 149h80l22 125q8 41 28.5 81t54.5 71.5t80 51t105 19.5h111l-31 -165h-75q-68 0 -80 -70l-21 -113h144l-29 -149h-143z" />
<glyph unicode="g" horiz-adv-x="827" d="M717 -49q-12 -70 -48 -129.5t-88.5 -102.5t-122 -66.5t-149.5 -23.5q-92 0 -154.5 21.5t-115.5 79.5l147 125q51 -63 146 -64q45 0 77.5 14.5t56 37t36 52t18.5 58.5l23 119q-45 -41 -94.5 -59.5t-108.5 -18.5q-84 0 -132 32.5t-68.5 88t-18.5 127t16 149.5 q12 70 36 139.5t63.5 127t101 93t151.5 35.5q63 0 104.5 -18t74.5 -63l14 73h188zM606 410q6 39 9 75.5t-5 64.5t-30.5 45t-67.5 17q-43 0 -74.5 -19.5t-53.5 -51t-35 -71.5t-19 -79t-8.5 -78t7 -70.5t34 -52t67.5 -20.5q45 0 75 22.5t50 58.5t31.5 78t19.5 81z" />
<glyph unicode="h" horiz-adv-x="839" d="M547 0l86 475q8 39 2 64.5t-21.5 42t-37 23.5t-44.5 7q-47 0 -91 -29.5t-60 -107.5l-86 -475h-195l207 1126h195l-78 -419q47 41 98 60t105 19q129 0 179 -79.5t28 -202.5l-93 -504h-194z" />
<glyph unicode="i" horiz-adv-x="403" d="M104 0l144 778h194l-143 -778h-195zM279 1038q10 47 48 79t85 32t73.5 -32t16.5 -79q-8 -47 -46 -79.5t-85 -32.5t-73.5 32.5t-18.5 79.5z" />
<glyph unicode="j" horiz-adv-x="403" d="M281 -96q-8 -41 -29 -81t-53.5 -71t-79.5 -50t-107 -19h-110l30 163h74q70 0 82 72l160 860h194zM279 1038q10 47 48 79t85 32t73.5 -32t16.5 -79q-8 -47 -46 -79.5t-85 -32.5t-73.5 32.5t-18.5 79.5z" />
<glyph unicode="k" horiz-adv-x="788" d="M567 0l-133 324l-98 -93l-41 -231h-195l207 1126h195l-123 -665l317 317h234l-336 -313l213 -465h-240z" />
<glyph unicode="l" horiz-adv-x="438" d="M328 0q-59 0 -99.5 19.5t-62 51t-27.5 71.5t2 81l166 903h195l-164 -890q-6 -35 5 -53.5t48 -18.5h74l-29 -164h-108z" />
<glyph unicode="m" horiz-adv-x="1353" d="M1055 0l86 469q8 41 -1.5 68.5t-28.5 44t-44 23.5t-47 7q-45 0 -94 -29.5t-66 -107.5l-86 -475h-194l86 469q8 41 -1.5 68.5t-26.5 44t-42 23.5t-47 7q-47 0 -97.5 -30.5t-66.5 -112.5l-86 -469h-195l144 778h188l-14 -71q47 39 107.5 59t113.5 20q66 0 119 -23.5 t82 -72.5q115 96 254 96q61 0 111.5 -21.5t83 -60t47 -91t1.5 -115.5l-92 -498h-194z" />
<glyph unicode="n" horiz-adv-x="839" d="M553 0l86 469q8 41 2 68.5t-19.5 44t-35 23.5t-43.5 7q-47 0 -98.5 -37.5t-65.5 -113.5l-84 -461h-195l144 778h188l-14 -82q47 43 99 66.5t112 23.5q123 0 177 -82.5t34 -205.5l-92 -498h-195z" />
<glyph unicode="o" horiz-adv-x="813" d="M819 391q-16 -86 -47 -159.5t-81 -128t-120.5 -84t-169.5 -29.5q-96 0 -155.5 30.5t-89 84t-32.5 127t13 159.5q14 86 45 158t80 125t120 82.5t167 29.5t156.5 -29.5t91 -81.5t34.5 -125t-12 -159zM625 391q8 43 10 83t-8.5 70.5t-36 49t-74.5 18.5q-47 0 -78.5 -19.5 t-53.5 -50t-34 -70.5t-20 -81q-8 -43 -10.5 -84t8 -71.5t35 -50t71.5 -19.5q49 0 81 18.5t53.5 50t35 72.5t21.5 84z" />
<glyph unicode="p" horiz-adv-x="831" d="M848 387q-16 -80 -42 -152.5t-68 -127t-104.5 -86t-148.5 -31.5q-61 0 -104 18.5t-74 59.5l-78 -416h-194l209 1126h186l-14 -73q51 45 102 63t115 18q94 0 144 -35.5t70.5 -93t16.5 -129t-16 -141.5zM647 387q8 47 10 88t-9 72t-35.5 48t-69.5 17q-47 0 -77 -17 t-49.5 -48t-30.5 -72t-19 -88q-10 -47 -13.5 -87t5 -69.5t32 -47t70.5 -17.5q88 0 128 63.5t58 157.5z" />
<glyph unicode="q" horiz-adv-x="831" d="M127 387q12 70 35.5 141.5t64.5 129t104.5 93t157.5 35.5q63 0 107.5 -18t77.5 -63l14 73h186l-208 -1126h-195l78 416q-47 -41 -96.5 -59.5t-110.5 -18.5q-86 0 -136 31.5t-72.5 86t-22.5 127t16 152.5zM328 387q-10 -47 -11.5 -87t9 -69.5t36 -47t70.5 -17.5t76 17.5 t49 47t29.5 69.5t21.5 87q8 47 12.5 88t-4 72t-33 48t-69.5 17t-76.5 -17t-53.5 -48t-35 -72t-21 -88z" />
<glyph unicode="r" horiz-adv-x="538" d="M592 598q-12 6 -26.5 10t-33.5 4q-45 0 -91 -34.5t-60 -108.5l-86 -469h-195l144 778h188l-14 -76q35 35 92 59.5t121 24.5q35 0 60.5 -5t47.5 -19z" />
<glyph unicode="s" horiz-adv-x="747" d="M737 244q-12 -63 -46 -111.5t-84 -80.5t-112.5 -47t-129.5 -15q-92 0 -170 19.5t-138 94.5l148 127q41 -49 94 -62t98 -13q51 0 96.5 18.5t53.5 63.5q6 29 -8.5 48t-57.5 23l-121 13q-102 10 -153 60t-31 157q12 61 45 107t80 77t103.5 47t115.5 16q90 0 161 -18t118 -72 l-142 -121q-29 31 -74.5 41.5t-97.5 10.5q-57 0 -85.5 -22.5t-32.5 -51.5q-4 -23 4 -43.5t59 -24.5l121 -12q113 -10 158.5 -69.5t27.5 -159.5z" />
<glyph unicode="t" horiz-adv-x="462" d="M334 0q-59 0 -98 19.5t-60.5 51t-28 71.5t2.5 81l73 406h-84l29 149h84l45 244h195l-46 -244h136l-29 -149h-135l-72 -393q-12 -72 53 -72h68l-29 -164h-104z" />
<glyph unicode="u" horiz-adv-x="841" d="M432 778l-88 -471q-6 -41 -1 -67.5t19.5 -43t36 -23.5t43.5 -7q47 0 96.5 30.5t63.5 110.5l88 471h195l-144 -778h-188l12 72q-47 -41 -101 -61.5t-108 -20.5q-123 0 -178 83t-33 208l93 497h194z" />
<glyph unicode="v" horiz-adv-x="768" d="M463 0h-154l-147 778h207l71 -481l248 481h207z" />
<glyph unicode="w" horiz-adv-x="1169" d="M913 0h-161l-76 487l-254 -487h-162l-98 778h209l37 -481l249 481h142l71 -481l220 481h204z" />
<glyph unicode="x" horiz-adv-x="772" d="M528 0l-100 233l-186 -233h-232l340 397l-186 381h233l90 -223l175 223h233l-330 -381l195 -397h-232z" />
<glyph unicode="y" horiz-adv-x="768" d="M354 -193q-43 -76 -106.5 -117.5t-149.5 -41.5h-78l33 176h47q41 0 63.5 13t45.5 54l88 164l-137 723h207l73 -481l248 481h207z" />
<glyph unicode="z" horiz-adv-x="702" d="M55 0l27 147l430 455h-326l33 176h572l-29 -149l-432 -453h348l-31 -176h-592z" />
<glyph unicode="{" horiz-adv-x="630" d="M410 -172q-51 0 -92.5 15.5t-67 44t-35.5 70.5t0 97l51 281q12 70 -10 94q-23 29 -74 29h-51l33 178h51q29 0 49.5 9t36.5 20q16 16 30.5 57t20.5 74l41 223q20 111 93 170t188 59h137l-35 -180h-61q-59 0 -91 -25.5t-46 -95.5l-46 -246q-8 -41 -23 -68.5t-34.5 -44 t-40 -25.5t-35.5 -15q14 -6 30.5 -15.5t29 -27t18.5 -44t-2 -67.5l-49 -266q-10 -59 8.5 -90t83.5 -31h62l-33 -180h-137z" />
<glyph unicode="|" horiz-adv-x="509" d="M131 -113l252 1358h201l-252 -1358h-201z" />
<glyph unicode="}" horiz-adv-x="630" d="M18 -172l33 180h62q68 0 97.5 31t39.5 90l49 266q8 41 23.5 67.5t35 44t40 27t36.5 15.5q-14 6 -31.5 15t-30 25.5t-18.5 44.5t2 68l45 246q14 70 -9 95.5t-83 25.5h-61l35 180h137q115 0 166 -59.5t30 -169.5l-41 -223q-6 -33 -8 -74t8 -57q10 -10 29 -19.5t45 -9.5h53 l-32 -178h-54q-51 0 -86 -29q-29 -27 -41 -94l-51 -281q-23 -111 -101.5 -169t-180.5 -58h-138z" />
<glyph unicode="~" horiz-adv-x="956" d="M963 420q-55 -47 -108.5 -79t-109 -44t-111.5 -2t-118 45q-59 35 -123.5 33t-140.5 -62l-102 125q55 47 108 79t108.5 44t112 2t115.5 -45q63 -35 125.5 -33t140.5 62l103 -125v0z" />
<glyph unicode="&#xa2;" horiz-adv-x="802" d="M752 301q-41 -41 -73 -66.5t-60.5 -42t-55 -24.5t-57.5 -12l-25 -127h-143l24 135q-113 25 -160.5 121t-21.5 243q29 145 112 240.5t206 120.5l20 108h144l-21 -104q53 -8 103.5 -41t95.5 -100l-133 -99q-33 41 -53.5 63.5t-39.5 31.5l-82 -443q29 12 60 36t72 58l86 -94 zM469 733q-59 -29 -90 -84t-43 -121q-10 -63 -3 -121.5t58 -87.5z" />
<glyph unicode="&#xa3;" horiz-adv-x="788" d="M109 0l79 438h-94l31 160h94l19 104q14 78 52 140.5t93 107.5t128 68.5t157 23.5t152.5 -33.5t131.5 -101.5l-159 -125q-35 33 -70 59.5t-88 26.5q-84 0 -136.5 -46t-68.5 -132l-16 -92h229l-31 -160h-229l-49 -264h457l-31 -174h-651z" />
<glyph unicode="&#xa5;" horiz-adv-x="862" d="M764 631h147l-30 -164h-234l-31 -45l-10 -47h256l-28 -164h-256l-39 -211h-215l38 211h-258l29 164h258l10 47l-16 45h-233l30 164h148l-129 397h237l111 -393l258 393h235z" />
<glyph unicode="&#xa9;" horiz-adv-x="1300" d="M1300 528q-20 -115 -81.5 -216t-150.5 -177t-198.5 -119t-224.5 -43t-208 43t-154.5 119t-87 177.5t-5.5 215.5q20 115 84 216.5t154 176t199.5 118.5t224.5 44t208 -44t153.5 -118.5t83.5 -176t3 -216.5zM1149 528q14 82 -3.5 157t-62.5 130t-111.5 88t-148.5 33 q-84 0 -162.5 -33t-144 -88t-112 -130t-60.5 -157q-16 -82 2.5 -155.5t63.5 -130t111.5 -89t150.5 -32.5q82 0 160.5 32.5t144 89t111 130t61.5 155.5zM954 319q-76 -59 -128 -83.5t-117 -24.5q-72 0 -120 25.5t-75 69.5t-33 101.5t6 120.5q12 68 40 126.5t70 101.5 t99.5 68.5t128.5 25.5q63 0 111.5 -28.5t95.5 -82.5l-108 -98q-35 41 -64 57.5t-59 16.5q-39 0 -67.5 -15.5t-49 -42t-34 -59.5t-19.5 -70q-6 -35 -5 -67.5t12 -57t33.5 -39t61.5 -14.5q33 0 67 13.5t85 54.5z" />
<glyph unicode="&#xab;" horiz-adv-x="944" d="M553 418l457 381l-45 -238l-174 -143l120 -144l-43 -237zM123 418l457 381l-45 -238l-173 -143l119 -144l-43 -237z" />
<glyph unicode="&#xad;" horiz-adv-x="688" d="M166 330l35 186h475l-35 -186h-475z" />
<glyph unicode="&#xae;" horiz-adv-x="1300" d="M1300 528q-20 -115 -81.5 -216t-150.5 -177t-198.5 -119t-224.5 -43t-208 43t-154.5 119t-87 177.5t-5.5 215.5q20 115 84 216.5t154 176t199.5 118.5t224.5 44t208 -44t153.5 -118.5t83.5 -176t3 -216.5zM1149 528q14 82 -3.5 157t-62.5 130t-111.5 88t-148.5 33 q-84 0 -162.5 -33t-144 -88t-112 -130t-60.5 -157q-16 -82 2.5 -155.5t63.5 -130t111.5 -89t150.5 -32.5q82 0 160.5 32.5t144 89t111 130t61.5 155.5zM778 244l-82 202h-22l-37 -202h-131l106 575h201q80 0 126 -51t30 -137q-10 -53 -43 -97.5t-78 -68.5q12 -31 24.5 -63.5 t26.5 -63.5l39 -94h-160zM838 631q4 25 -11.5 43t-44.5 18h-63l-23 -121h64q29 0 51.5 17.5t26.5 42.5z" />
<glyph unicode="&#xbb;" horiz-adv-x="944" d="M86 37l43 237l176 144l-123 143l45 238l314 -381zM518 37l43 237l172 144l-119 143l45 238l312 -381z" />
<glyph unicode="&#xbc;" horiz-adv-x="1241" d="M444 0h-159l721 1026h155zM274 385l86 461l-133 -92l29 157l166 115h115l-119 -641h-144zM1143 88l-15 -88h-141l14 88h-268l19 94l297 416h153l-272 -381h96l29 158h141l-29 -158h74l-24 -129h-74z" />
<glyph unicode="&#xbd;" horiz-adv-x="1241" d="M756 0l18 104l313 295q10 10 18.5 24.5t12.5 31.5q12 66 -57 65q-25 0 -51.5 -22.5t-36.5 -79.5h-142q23 98 91.5 163.5t160.5 65.5q98 0 147.5 -53t33.5 -139q-8 -41 -29 -71t-61 -71l-199 -186h227l-22 -127h-424zM406 0h-160l721 1026h155zM274 385l86 461l-133 -92 l29 157l166 115h115l-119 -641h-144z" />
<glyph unicode="&#xbe;" horiz-adv-x="1241" d="M1143 88l-15 -88h-141l14 88h-268l19 94l297 416h153l-272 -381h96l29 158h141l-29 -158h74l-24 -129h-74zM500 0h-158l719 1022h158zM618 578q-18 -102 -90.5 -150.5t-167.5 -48.5q-92 0 -147 52t-37 173h139q-4 -55 15.5 -77.5t52.5 -22.5q35 0 58.5 18.5t31.5 55.5 q4 31 -11.5 54t-55.5 23h-19l21 111h18q39 0 58.5 18.5t25.5 46.5q6 35 -11.5 51.5t-43.5 16.5q-66 0 -95 -94h-145q33 106 104.5 164.5t159.5 58.5q94 0 143.5 -52t32.5 -142q-6 -35 -26.5 -65t-46.5 -54q23 -23 33.5 -59.5t2.5 -77.5z" />
<glyph unicode="&#xd7;" horiz-adv-x="868" d="M680 59l-193 240l-280 -240l-105 131l281 238l-190 236l149 129l193 -236l280 236l107 -129l-283 -236l195 -238z" />
<glyph unicode="&#xf7;" horiz-adv-x="829" d="M119 330l35 186h708l-35 -186h-708zM436 721q8 47 46 80t85 33t74 -33t18 -80q-10 -47 -48 -79t-85 -32t-73.5 32t-16.5 79zM326 131q10 47 47 79t84 32t74.5 -32t17.5 -79q-8 -47 -47 -80t-86 -33t-72.5 33t-17.5 80z" />
<glyph unicode="&#xe01;" horiz-adv-x="942" d="M424 489l-90 -489h-205l84 457l-70 123q82 129 202 192.5t269 63.5q195 0 269.5 -91.5t46.5 -250.5l-90 -494h-205l88 481q35 178 -143 174q-41 0 -100.5 -11t-104.5 -56z" />
<glyph unicode="&#xe02;" horiz-adv-x="800" d="M344 279q-10 -49 9.5 -78t72.5 -29t79.5 28.5t37.5 78.5l100 548h207l-102 -553q-12 -63 -43 -115.5t-78 -90t-106.5 -58t-127.5 -20.5q-139 0 -207.5 78.5t-48.5 205.5l17 91q10 45 26.5 70.5t46.5 51.5l131 121l21.5 21.5t13.5 17.5q6 29 -22 29q-14 0 -48 -18.5 t-69 -45.5l-125 97q152 127 264 127q98 0 147.5 -53.5t32.5 -143.5q-8 -41 -33.5 -79t-66.5 -77l-102 -98q-12 -16 -15 -37z" />
<glyph unicode="&#xe03;" horiz-adv-x="821" d="M342 279q-10 -47 13.5 -76t78.5 -29q51 0 84 28.5t43 76.5l101 548h208l-102 -553q-12 -63 -45 -115.5t-82 -90t-110.5 -58t-129.5 -20.5q-137 0 -211.5 78.5t-54.5 205.5l15 78q16 78 75 131l189 154q8 6 17 15.5t11 17.5q2 4 0 11t-12 7q-12 0 -37 -18l-49 -39 q-49 -35 -90 -2l-141 110l135 111l82 -62q33 20 67.5 33t69.5 13q82 0 126 -48.5t30 -123.5q-6 -41 -38 -85.5t-79 -84.5l-139 -113q-6 -4 -9.5 -19.5t-5.5 -19.5z" />
<glyph unicode="&#xe04;" horiz-adv-x="942" d="M305 0h-203l95 512q14 84 56 144.5t100.5 100.5t128 59.5t143.5 19.5t136 -19.5t106 -59.5t62.5 -100.5t4.5 -144.5l-94 -512h-203l92 500q14 80 -23.5 115.5t-115.5 35.5q-76 0 -126 -33.5t-67 -109.5l-8 -49q10 4 23.5 7t21.5 3h131l-30 -168h-117q-35 0 -49.5 -14.5 t-18.5 -42.5z" />
<glyph unicode="&#xe05;" horiz-adv-x="974" d="M393 442q10 4 22.5 5.5t20.5 1.5h144l-31 -168h-131q-35 0 -48.5 -15.5t-17.5 -44.5l-41 -221h-207l99 532q23 117 100.5 193t194.5 113l123 -113l161 117q102 -29 154.5 -108t34.5 -202l-99 -532h-204l94 518q12 59 -4 103l-94 -60q-47 -31 -81 -31t-65 29l-67 62 q-18 -18 -28.5 -45t-16.5 -58z" />
<glyph unicode="&#xe06;" horiz-adv-x="911" d="M426 637q8 6 17.5 16.5t11.5 16.5q2 4 0 11t-13 7q-14 0 -39 -18l-49 -39q-27 -18 -47 -18.5t-41 16.5l-141 110l135 111l82 -62q33 20 67.5 33t69.5 13q82 0 126 -48.5t30 -123.5q-6 -41 -38 -85.5t-79 -84.5l-139 -113q-6 -4 -9 -19.5t-5 -19.5v-8q-14 -74 18.5 -115 t99.5 -41q150 0 181 156l90 495h207l-95 -514q-16 -84 -53 -144t-87 -99t-111.5 -58.5t-122.5 -19.5q-57 0 -106.5 27.5t-66.5 58.5l-14 -78h-207l64 352q16 78 76 131z" />
<glyph unicode="&#xe07;" horiz-adv-x="665" d="M188 272q27 -100 101 -100q53 0 80.5 28.5t38.5 78.5l67 370h-110l32 178h318l-103 -553q-25 -137 -117 -210.5t-239 -73.5q-111 0 -173.5 52t-84.5 144z" />
<glyph unicode="&#xe08;" horiz-adv-x="784" d="M96 635q147 201 379 201q160 0 245 -81t56 -243l-94 -512h-207l45 244q4 29 -4 43t-39 14h-131l31 168h143q10 0 19.5 -2t19.5 -10l8 49q14 72 -19.5 108.5t-107.5 36.5q-47 0 -94 -25.5t-84 -82.5z" />
<glyph unicode="&#xe09;" horiz-adv-x="911" d="M213 641q70 98 169 146.5t212 48.5q80 0 143.5 -20.5t105.5 -60.5t58.5 -100.5t1.5 -140.5l-94 -514h-207l12 76q-37 -35 -83 -59.5t-107 -24.5q-72 0 -127 21.5t-92 63.5t-52.5 101.5t-2.5 134.5l28 158h207l-27 -141q-29 -156 117 -156q70 0 122 43t65 113l32 170 q27 154 -133 153q-47 0 -95 -24.5t-87 -75.5z" />
<glyph unicode="&#xe0a;" horiz-adv-x="847" d="M387 610l18.5 18.5t10.5 22.5q6 25 -21 21q-14 -2 -49 -23.5t-63 -42.5l-131 103q152 127 264 127q98 0 147 -53.5t33 -143.5q-8 -41 -33.5 -79t-66.5 -77l-103 -98q-10 -14 -14 -41l-8 -45q-10 -49 12.5 -85t75.5 -36q109 0 127 105l47 258q4 23 -6.5 36t-20.5 19 q-18 12 -32.5 25.5t-10.5 35.5q4 14 15.5 33t35.5 37l295 236l121 -134l-209 -163q10 -23 18.5 -52.5t2.5 -64.5l-49 -270q-12 -63 -45 -115.5t-82.5 -90.5t-111.5 -58.5t-130 -20.5q-70 0 -123 23.5t-87 64.5t-47 96t-3 117l12 70q10 45 27.5 72.5t46.5 54.5z" />
<glyph unicode="&#xe0b;" horiz-adv-x="892" d="M639 662q-6 -41 -38 -87.5t-79 -89.5l-102 -100q-4 -6 -8 -15.5t-9 -25.5l-8 -45q-10 -49 15.5 -86t83.5 -37q53 0 90 27.5t47 79.5l49 266q4 12 -8.5 24.5t-24.5 20.5l2 -2q-23 10 -36 26.5t-9 38.5q6 29 51 68l289 233l121 -122l-203 -166q16 -23 23.5 -50.5 t-0.5 -70.5l-49 -270q-12 -63 -47 -115.5t-85.5 -90.5t-113 -58.5t-129.5 -20.5q-70 0 -125 23.5t-92 64.5t-51.5 96t-4.5 117l13 59q10 53 29.5 83t48.5 57l155 143q18 14 23 33q2 4 0 10t-13 6q-12 0 -36 -18l-48 -37q-49 -35 -90 -2l-141 110l135 111l82 -62q33 20 68 33 t69 13q82 0 126 -48t30 -124z" />
<glyph unicode="&#xe0c;" horiz-adv-x="1415" d="M215 457l-70 123q82 129 202 192.5t269 63.5q195 0 270 -91.5t46 -250.5l-31 -164q-12 -70 21.5 -113t89.5 -43q59 0 100 41t55 115l93 497h204l-94 -514q-14 -80 -48 -140t-81 -100t-103.5 -60.5t-115.5 -20.5q-57 0 -103.5 27.5t-62.5 58.5l-14 -78h-205l88 481 q35 178 -143 174q-41 0 -100.5 -11t-104.5 -56l49 -99l-49 -268q-10 -37 16 -37h92l-32 -184h-109q-117 0 -154.5 58.5t-19.5 160.5z" />
<glyph unicode="&#xe0d;" horiz-adv-x="1400" d="M815 0q-12 -59 14 -59h447l-31 -170h-479q-31 0 -61.5 8t-51 32.5t-29 69.5t6.5 119h184zM377 221q-10 -37 16 -37h92l-32 -184h-109q-117 0 -154.5 58.5t-19.5 160.5l45 238l-70 123q82 129 202 192.5t269 63.5q195 0 270 -91.5t46 -250.5l-21 -117q-14 -76 9.5 -117 t80.5 -41q59 0 104.5 41t59.5 117l82 450h203l-86 -467q-12 -66 -43 -125t-79 -103t-115.5 -69.5t-153.5 -25.5q-164 0 -231.5 84t-39.5 239l23 121q35 178 -143 174q-41 0 -100.5 -11t-104.5 -56l49 -99z" />
<glyph unicode="&#xe0e;" horiz-adv-x="962" d="M829 -162q-8 -39 -25.5 -68.5t-38 -49t-39.5 -31t-30 -15.5q-72 -29 -137 0l-143 66q-14 6 -27 0l-221 -98l-84 129l289 129q33 14 58.5 15t57.5 -15l119 -54q4 -2 11.5 0t9.5 13l114 622q35 178 -143 174q-41 0 -100.5 -11t-104.5 -56l49 -99l-51 -270q-14 -74 -52 -118 t-85 -67.5t-95 -29.5t-85 -6l-4 180q37 -2 60.5 4t35.5 15.5t17 19.5t8 21l40 219l-69 123q82 129 201.5 192.5t269.5 63.5q195 0 269.5 -91.5t45.5 -250.5z" />
<glyph unicode="&#xe0f;" horiz-adv-x="962" d="M829 -164q-6 -33 -23.5 -64.5t-44 -57t-61 -42t-75.5 -16.5q-37 0 -72 20l-98 60q-10 6 -19 0l-108 -58q-41 -23 -74 -18.5t-55 21.5l-199 153l184 90l107 -82q8 -6 18 0l103 56q35 16 66.5 15t60.5 -15l73 -45q12 -4 17 10l114 618q35 178 -143 174q-41 0 -100.5 -11 t-104.5 -56l49 -99l-51 -270q-14 -74 -52 -118t-85 -66.5t-95 -28.5t-85 -6l-4 178q72 -4 94 16.5t27 43.5l40 219l-69 123q82 129 201.5 192.5t269.5 63.5q195 0 269.5 -91.5t45.5 -250.5z" />
<glyph unicode="&#xe10;" horiz-adv-x="788" d="M354 -86q47 0 76 -31l23 -22l14 76h201l-21 -107q-10 -51 -32.5 -83t-47 -51.5t-46 -26.5t-27.5 -9q-33 -8 -67 -4t-60 27l-48 41l-47 -37q-35 -27 -79 -27q-45 0 -74 23l-166 139l174 108l96 -82l45 35q39 31 86 31zM567 506q14 72 -19.5 108.5t-107.5 36.5 q-47 0 -94 -25.5t-84 -82.5l-166 92q147 201 379 201q84 0 160 -27l190 152l125 -132l-186 -141q31 -72 12 -176l-94 -512h-207l45 244q4 29 -4 43t-39 14h-131l31 168h143q10 0 19.5 -2t19.5 -10z" />
<glyph unicode="&#xe11;" horiz-adv-x="935" d="M494 838q84 0 127 -56l67 56q137 -2 206 -70t44 -199l-104 -569h-203l102 563q6 31 6 51.5t-16 30.5l-334 -276q-6 -4 -9 -19.5t-5 -19.5l-60 -330h-206l63 344q14 86 78 135l201 164q14 10 15 25.5t-15 15.5q-14 0 -39 -18l-52 -37q-27 -16 -44 -16.5t-40 14.5l-141 110 l137 121l80 -63q35 20 71 31.5t71 11.5z" />
<glyph unicode="&#xe12;" horiz-adv-x="1415" d="M745 506q16 72 -12 112l-78 -55q-33 -29 -78 -27.5t-67 29.5l-55 53q-37 -37 -54 -112l-47 -260q-6 -31 2.5 -45.5t38.5 -14.5h80l-33 -186h-94q-123 0 -173 66.5t-28 177.5l52 278q23 127 112.5 206t220.5 110l84 -88l117 88q119 -25 180.5 -103t38.5 -213l-37 -192 q-12 -70 22 -113t89 -43q59 0 93 41t48 115l93 497h204l-94 -514q-29 -160 -122 -240.5t-222 -80.5q-57 0 -98 27.5t-58 58.5l-14 -78h-203z" />
<glyph unicode="&#xe13;" horiz-adv-x="1409" d="M213 457l-68 123q82 129 202 192.5t267 63.5q195 0 269.5 -91.5t46.5 -250.5l-31 -164q-14 -74 8.5 -115t87.5 -41q53 0 103.5 43t62.5 113l92 497h205l-151 -827h-205l14 78q-29 -31 -80 -58.5t-108 -27.5q-129 0 -196.5 81t-39.5 240l31 168q33 174 -143 174 q-41 0 -99.5 -11t-103.5 -56l47 -99l-49 -268q-10 -37 16 -37h92l-32 -184h-109q-117 0 -154.5 58.5t-19.5 160.5z" />
<glyph unicode="&#xe14;" horiz-adv-x="944" d="M197 512q14 78 54 138.5t98.5 101.5t129 62.5t146.5 21.5t139 -18.5t105 -58.5t60.5 -101.5t6.5 -145.5l-94 -512h-203l92 500q14 80 -24.5 115.5t-116.5 35.5t-128 -35.5t-65 -115.5l-49 -258q-4 -29 5 -44.5t42 -15.5h80l-33 -182h-94q-123 0 -173 66.5t-28 177.5z" />
<glyph unicode="&#xe15;" horiz-adv-x="972" d="M449 621q-18 -18 -28.5 -45t-17.5 -58l-51 -276q-4 -29 3 -44.5t40 -15.5h80l-33 -182h-92q-125 0 -175 66.5t-28 177.5l54 288q23 117 100.5 193t194.5 113l122 -113l162 117q102 -29 154.5 -108t34.5 -202l-99 -532h-204l94 518q12 59 -4 103l-94 -60q-47 -31 -81 -31 t-65 29z" />
<glyph unicode="&#xe16;" horiz-adv-x="940" d="M840 0h-205l88 481q35 178 -143 174q-41 0 -100.5 -11t-104.5 -56l49 -99l-49 -268q-10 -37 18 -37h92l-34 -184h-109q-117 0 -154.5 58.5t-19.5 160.5l45 238l-70 123q82 129 202 192.5t269 63.5q195 0 269.5 -91.5t46.5 -250.5z" />
<glyph unicode="&#xe17;" horiz-adv-x="894" d="M586 0l92 500q8 43 1 71.5t-22.5 47t-38 25.5t-47.5 7t-51 -10t-51 -29.5t-43 -50.5t-27 -72l-90 -489h-207l152 827h201l-15 -86q51 47 105.5 72t118.5 25q66 0 113.5 -23.5t76.5 -65.5t38 -98.5t-3 -122.5l-96 -528h-207z" />
<glyph unicode="&#xe18;" horiz-adv-x="849" d="M166 377h203l-31 -158q-4 -20 26.5 -32.5t71.5 -12.5q84 0 132 28.5t59 76.5q4 27 -12.5 45t-42 28t-56.5 16.5t-55 12.5q-150 33 -223.5 83t-55.5 152q10 55 43 96.5t83 69t113.5 41t137.5 13.5q92 0 182 -31t168 -92l-159 -133q-41 35 -110 56t-134 21q-47 0 -78 -9 t-35 -34q-4 -18 37 -35.5t168 -43.5q53 -10 100 -30t81 -49.5t48.5 -73.5t3.5 -103q-12 -61 -47.5 -114.5t-91 -91.5t-128 -60.5t-158.5 -22.5q-53 0 -106.5 13t-93.5 42t-60.5 72t-10.5 102z" />
<glyph unicode="&#xe19;" horiz-adv-x="892" d="M461 827l-92 -499q-8 -43 -2 -72t21 -47.5t36.5 -25.5t46.5 -7t52.5 10.5t52 30t43 50t26.5 71.5l90 489h207l-151 -827h-201l14 86q-51 -47 -105.5 -71.5t-117.5 -24.5q-66 0 -113 23.5t-75.5 64.5t-38 98t3.5 123l96 528h207z" />
<glyph unicode="&#xe1a;" horiz-adv-x="901" d="M449 -8q-156 0 -237 83t-52 238l94 514h207l-92 -499q-14 -74 13.5 -114t98.5 -40q72 0 114 40t56 114l92 499h207l-94 -514q-14 -78 -51 -137t-90 -100t-121.5 -62.5t-144.5 -21.5z" />
<glyph unicode="&#xe1b;" horiz-adv-x="901" d="M449 -8q-156 0 -237 83t-52 238l94 514h207l-92 -499q-14 -74 13.5 -114t98.5 -40q72 0 114 40t56 114l166 897h207l-168 -912q-14 -78 -51 -137t-90 -100t-121.5 -62.5t-144.5 -21.5z" />
<glyph unicode="&#xe1c;" horiz-adv-x="972" d="M463 268q41 29 74.5 29t70.5 -31l70 -59q33 39 43 102l96 518h205l-98 -532q-25 -123 -107 -202t-196 -107l-117 116l-164 -112q-104 37 -155.5 112.5t-28.5 192.5l53 289q23 111 95.5 177t197.5 66h92l-33 -182h-80q-33 0 -46 -15.5t-17 -43.5l-53 -277 q-4 -31 -4.5 -57.5t10.5 -44.5z" />
<glyph unicode="&#xe1d;" horiz-adv-x="972" d="M463 268q41 29 74.5 29t70.5 -31l70 -59q33 39 43 102l170 916h205l-172 -930q-25 -123 -107 -202t-196 -107l-117 116l-164 -112q-104 37 -155.5 112.5t-28.5 192.5l53 289q23 111 95.5 177t197.5 66h92l-33 -182h-80q-33 0 -46 -15.5t-17 -43.5l-53 -277 q-4 -31 -4.5 -57.5t10.5 -44.5z" />
<glyph unicode="&#xe1e;" horiz-adv-x="1126" d="M786 827l74 -475l156 475h209l-295 -827h-174l-103 494l-282 -494h-176l10 827h209l-21 -477l250 477h143z" />
<glyph unicode="&#xe1f;" horiz-adv-x="1126" d="M786 827l74 -475l299 873h209l-438 -1225h-174l-103 494l-282 -494h-176l10 827h209l-21 -477l250 477h143z" />
<glyph unicode="&#xe20;" horiz-adv-x="962" d="M860 0h-205l88 481q35 178 -143 174q-41 0 -100.5 -11t-104.5 -56l49 -99l-51 -270q-14 -74 -52 -118t-85 -67.5t-95 -29.5t-85 -6l-4 180q37 -2 60.5 4t35.5 15.5t17 19.5t8 21l40 219l-69 123q82 129 201.5 192.5t269.5 63.5q195 0 269.5 -91.5t45.5 -250.5z" />
<glyph unicode="&#xe21;" horiz-adv-x="892" d="M942 827l-96 -528q-12 -66 -42 -123t-74 -98t-100.5 -64.5t-121.5 -23.5q-63 0 -109.5 24.5t-81.5 71.5l-14 -86h-201l152 827h207l-90 -489q-8 -41 -1 -71.5t24.5 -50t41 -30t47.5 -10.5q49 0 96.5 33t63.5 119l92 499h207z" />
<glyph unicode="&#xe22;" horiz-adv-x="899" d="M500 360q-90 -6 -132 -25.5t-53 -70.5q-6 -35 32 -62.5t114 -27.5q96 0 137 48t55 126l88 479h207l-88 -479q-16 -84 -47 -150.5t-83 -112.5t-127 -71.5t-177 -25.5q-121 0 -186.5 32.5t-95 78.5t-32.5 93.5t3 75.5q10 47 32.5 88t65.5 76q-51 59 -41 150q8 51 32.5 95 t61.5 77.5t87 53t112 19.5h121l-33 -182h-107q-57 0 -69 -51q-6 -29 8 -44t36.5 -23.5t52.5 -10.5t54 -2z" />
<glyph unicode="&#xe23;" horiz-adv-x="757" d="M752 256q-10 -53 -40 -101.5t-78 -85t-115.5 -58t-151.5 -21.5q-115 0 -189 34.5t-133 112.5l152 137q41 -53 85 -76.5t113 -23.5q76 0 110 24.5t40 57.5t-21.5 50.5t-62.5 25.5l-62 14q-61 14 -108 32.5t-78 46.5t-42 66.5t-1 92.5q20 104 109.5 178t240.5 74 q86 0 154.5 -27t140.5 -94l-156 -123q-43 39 -82.5 50t-89.5 11q-49 0 -78.5 -16t-33.5 -45q-4 -16 6 -26.5t25.5 -17.5t33 -11.5t29.5 -8.5l70 -18q51 -12 94 -30.5t73.5 -48.5t43 -73t2.5 -102z" />
<glyph unicode="&#xe24;" horiz-adv-x="940" d="M782 -309h-204l145 790q35 178 -143 174q-41 0 -100.5 -11t-104.5 -56l49 -99l-49 -268q-10 -37 18 -37h92l-34 -184h-109q-117 0 -154.5 58.5t-19.5 160.5l45 238l-70 123q82 129 202 192.5t269 63.5q195 0 269.5 -91.5t46.5 -250.5z" />
<glyph unicode="&#xe25;" horiz-adv-x="841" d="M338 -8q-127 0 -194.5 65.5t-45.5 192.5q8 49 35 95t69 81t99 55.5t129 20.5h195l6 30q12 68 -18.5 99t-112.5 31q-53 0 -94 -15.5t-84 -48.5l-105 125q41 33 78 54.5t75 34.5t80 18.5t91 5.5q352 0 299 -291l-101 -545h-202l61 336h-197q-49 0 -79.5 -25.5t-36.5 -58.5 q-6 -37 10 -64.5t74 -27.5z" />
<glyph unicode="&#xe26;" horiz-adv-x="962" d="M803 -307h-205l145 788q35 178 -143 174q-41 0 -100.5 -11t-104.5 -56l49 -99l-51 -270q-14 -74 -52 -118t-85 -67.5t-95 -29.5t-85 -6l-4 180q37 -2 60.5 4t35.5 15.5t17 19.5t8 21l40 219l-69 123q82 129 201.5 192.5t269.5 63.5q195 0 269.5 -91.5t45.5 -250.5z" />
<glyph unicode="&#xe27;" horiz-adv-x="749" d="M123 641q74 92 168 143.5t190 51.5q164 0 234.5 -93.5t42.5 -246.5l-29 -162q-12 -68 -44 -130.5t-82 -109.5t-119.5 -74.5t-157.5 -27.5q-72 0 -140.5 32.5t-117.5 98.5l165 123q27 -31 62 -49.5t65 -18.5q72 0 113 46t53 112l29 160q12 61 -11.5 107t-97.5 46 q-37 0 -79.5 -25.5t-81.5 -72.5z" />
<glyph unicode="&#xe28;" horiz-adv-x="944" d="M305 0h-203l95 512q14 84 56 144.5t100.5 100.5t128 59.5t143.5 19.5q96 0 176 -35l180 149l113 -129l-172 -141q14 -35 18 -77t-6 -91l-94 -512h-203l92 500q14 80 -23.5 115.5t-115.5 35.5q-76 0 -126 -33.5t-67 -109.5l-8 -45q10 4 23.5 5t21.5 1h133l-30 -168h-119 q-35 0 -49.5 -14.5t-18.5 -42.5z" />
<glyph unicode="&#xe29;" horiz-adv-x="950" d="M885 358l-8 -45q-14 -74 -52.5 -133t-93.5 -102t-125.5 -65.5t-146.5 -22.5t-136.5 21.5t-100.5 62.5t-57.5 101.5t-4.5 137.5l94 514h207l-92 -499q-14 -74 18.5 -114t104.5 -40t118.5 40t61.5 114l6 30h-74q-31 0 -61.5 9.5t-51 35t-27.5 70.5t7 117h182 q-6 -33 -3 -45.5t12 -12.5h49l53 295h207l-53 -295h98l-33 -174h-98z" />
<glyph unicode="&#xe2a;" horiz-adv-x="841" d="M598 336h-197q-49 0 -79.5 -25.5t-36.5 -58.5q-6 -37 10 -64.5t74 -27.5l-31 -168q-127 0 -194.5 65.5t-45.5 192.5q8 49 35 95t69 81t99 55.5t129 20.5h195l6 30q12 68 -18.5 99t-112.5 31q-53 0 -94 -15.5t-84 -48.5l-105 125q41 33 78 54.5t75 34.5t80 18.5t91 5.5 q96 0 164 -25l165 139l113 -129l-152 -125q25 -59 9 -151l-101 -545h-202z" />
<glyph unicode="&#xe2b;" horiz-adv-x="917" d="M823 612q47 -43 60.5 -108.5t1.5 -136.5l-68 -367h-205l64 352q18 106 -35 135l-279 -184l-55 -303h-205l152 827h205l-53 -290l475 319l92 -139z" />
<glyph unicode="&#xe2c;" horiz-adv-x="1136" d="M950 623q-4 12 -16 21t-62 9l31 174h101q23 0 39 12.5t26 28.5l53 107h211l-82 -162q-43 -80 -102 -119q10 -23 6 -48t-12 -48l-215 -598h-172l-103 494l-282 -494h-176l10 827h209l-21 -477l250 477h141l76 -475z" />
<glyph unicode="&#xe2d;" horiz-adv-x="868" d="M195 680q96 78 182 118t192 40q193 0 272 -106.5t40 -317.5q-37 -199 -155 -311.5t-292 -112.5q-129 0 -204.5 65.5t-96.5 175.5q-4 20 -2 54t7 73t13.5 80t14.5 76h346l-33 -174h-145q-10 -63 25.5 -113.5t107.5 -50.5q49 0 85 19.5t60.5 52.5t39 76t24.5 90q8 41 8 84 t-14.5 76.5t-48 55t-91.5 21.5q-47 0 -95 -19.5t-107 -66.5z" />
<glyph unicode="&#xe2e;" horiz-adv-x="868" d="M195 680q96 78 182 118t192 40q94 0 160 -25l164 137l115 -129l-150 -123q27 -53 33 -122.5t-10 -161.5q-37 -199 -155 -311.5t-292 -112.5q-129 0 -204.5 65.5t-96.5 175.5q-4 20 -2 54t7 73t13.5 80t14.5 76h346l-33 -174h-145q-10 -63 25.5 -113.5t107.5 -50.5 q49 0 85 19.5t60.5 52.5t39 76t24.5 90q8 41 8 84t-14.5 76.5t-48 55t-91.5 21.5q-47 0 -95 -19.5t-107 -66.5z" />
<glyph unicode="&#xe2f;" horiz-adv-x="882" d="M635 350q-39 -25 -82 -35t-78 -10q-80 0 -143.5 15.5t-103.5 49t-55 86t-3 124.5q20 111 95 179t198 68h88l-33 -178h-74q-35 0 -49 -18.5t-20 -50.5q-10 -53 26.5 -73t108.5 -20q150 0 178 146l35 194h209l-152 -827h-209z" />
<glyph unicode="&#xe30;" horiz-adv-x="563" d="M375 743q-4 -33 -3 -52t9 -19h227l-33 -180h-249q-31 0 -59.5 12t-49 40.5t-29 78t4.5 120.5h182zM301 344q-4 -33 -3 -52.5t9 -19.5h228l-33 -180h-250q-31 0 -59.5 12.5t-49 41t-29 77.5t4.5 121h182z" />
<glyph unicode="&#xe31;" d="M-156 1196q-6 -29 -4 -52.5t17 -23.5h397l-29 -153h-428q-31 0 -61.5 7t-53 30.5t-30.5 68.5t6 123h186z" />
<glyph unicode="&#xe32;" horiz-adv-x="673" d="M119 682q66 74 145.5 114t165.5 40q147 0 207.5 -74t34.5 -213l-101 -549h-204l100 545q10 49 -5.5 77.5t-66.5 28.5q-66 0 -133 -67z" />
<glyph unicode="&#xe33;" horiz-adv-x="673" d="M-193 1122q8 39 30 74t51.5 60.5t66.5 41t76 15.5t70.5 -15.5t52 -41t30 -60.5t0.5 -74q-6 -39 -27.5 -72.5t-52 -59t-67.5 -41t-74 -15.5q-39 0 -70.5 15.5t-53 41t-30 59t-2.5 72.5zM-57 1122q-4 -23 8 -38t37 -15q23 0 41 15.5t22 37.5q4 25 -8 40.5t-37 15.5 q-23 0 -41 -15.5t-22 -40.5zM119 682q66 74 145.5 114t165.5 40q147 0 207.5 -74t34.5 -213l-101 -549h-204l100 545q10 49 -5.5 77.5t-66.5 28.5q-66 0 -133 -67z" />
<glyph unicode="&#xe34;" d="M-596 1120h700l-28 -153h-701z" />
<glyph unicode="&#xe35;" d="M-596 1120h508l20 115h193l-49 -268h-701z" />
<glyph unicode="&#xe36;" d="M-625 967l29 153h367q6 39 26.5 73t49 58.5t62.5 38t71 13.5q72 0 115.5 -48.5t29.5 -121.5q-6 -37 -26.5 -67t-48 -52.5t-61.5 -34.5t-71 -12h-543zM-98 1128q-4 -20 7 -33.5t30 -13.5q23 0 40 13.5t21 33.5q2 23 -9 36.5t-34 13.5q-18 0 -34.5 -13.5t-20.5 -36.5z" />
<glyph unicode="&#xe37;" d="M-596 1120h307l21 115h166l-21 -115h64l20 115h164l-49 -268h-701z" />
<glyph unicode="&#xe38;" d="M-348 -307q2 23 -10 22h-72l31 166h86q53 0 88 -7t53 -28.5t21.5 -60.5t-9.5 -102l-26 -146h-191z" />
<glyph unicode="&#xe39;" d="M-571 -276l-4 2h-60l29 155h96q84 0 106.5 -33.5t8.5 -115.5q-2 -10 0 -5t-2 -6q-2 -10 5 -18t23 -8t24.5 8t10.5 18l31 160h180l-31 -160q-16 -86 -85.5 -137t-157.5 -51q-92 0 -141.5 51t-32.5 137v3z" />
<glyph unicode="&#xe3a;" d="M-373 -231q8 49 49 83.5t91 34.5q49 0 77.5 -34.5t20.5 -83.5q-10 -49 -51 -84t-90 -35t-78 35t-19 84z" />
<glyph unicode="&#xe3e;" />
<glyph unicode="&#xe3f;" horiz-adv-x="997" d="M965 301q-29 -147 -132.5 -223t-242.5 -78l-31 -156h-156l31 156h-309l190 1028h310l22 123h156l-23 -123q141 -6 208 -84t42 -207q-14 -80 -62 -133t-91 -76q20 -12 39.5 -30.5t33 -46t18.5 -64.5t-3 -86zM362 186h105l47 246h-104zM442 614h105l43 230h-105zM756 307 q10 47 -12.5 82t-75.5 41l-43 -242q53 8 88 43t43 76zM823 729q8 41 -15.5 70.5t-64.5 40.5l-41 -222q45 8 79 39t42 72z" />
<glyph unicode="&#xe40;" horiz-adv-x="423" d="M254 827h207l-111 -606q-4 -16 -3 -26.5t18 -10.5h92l-33 -184h-109q-117 0 -154.5 58.5t-19.5 160.5z" />
<glyph unicode="&#xe41;" horiz-adv-x="817" d="M254 827h207l-111 -606q-4 -16 -3 -26.5t18 -10.5h92l-33 -184h-109q-117 0 -154.5 58.5t-19.5 160.5zM647 827h207l-111 -606q-4 -16 -3 -26.5t18 -10.5h92l-33 -184h-108q-117 0 -155 58.5t-19 160.5z" />
<glyph unicode="&#xe42;" horiz-adv-x="464" d="M291 952q8 43 -22.5 80t-110.5 37l63 156h527l-33 -176h-223q8 -29 7 -53.5t-5 -45.5l-134 -721q-4 -18 -3 -30.5t18 -12.5h90l-33 -186h-106q-59 0 -96 16.5t-56.5 47t-24 72.5t6.5 91z" />
<glyph unicode="&#xe43;" horiz-adv-x="466" d="M252 741q6 37 22.5 74t69.5 82q66 57 97.5 87t33.5 42q4 18 -9 24.5t-34 6.5q-16 0 -45 -16.5t-57 -65.5l-176 37q23 55 58.5 98t77.5 71.5t86 43t85 14.5q127 0 179 -57.5t34 -155.5q-10 -57 -54.5 -102t-91.5 -86q-29 -27 -46 -46.5t-23 -48.5l-97 -516 q-4 -16 -3 -28.5t18 -12.5h90l-33 -186h-106q-119 0 -155 62.5t-17 162.5z" />
<glyph unicode="&#xe44;" horiz-adv-x="491" d="M315 950q4 20 13.5 45t25.5 54h-198l32 176h502l6 -156q-80 0 -123 -37t-51 -80l-135 -725q-4 -18 -3 -29.5t17 -11.5h91l-33 -186h-107q-59 0 -96 17.5t-56.5 48t-23.5 72.5t6 91z" />
<glyph unicode="&#xe45;" horiz-adv-x="673" d="M119 682q66 74 145.5 114t165.5 40q147 0 207.5 -74t34.5 -213l-158 -858h-205l158 854q10 49 -5.5 77.5t-66.5 28.5q-66 0 -133 -67z" />
<glyph unicode="&#xe46;" horiz-adv-x="911" d="M418 633q-4 -6 -6 -21.5t-6 -27.5q-4 -18 -5.5 -37t15.5 -19h39l-31 -174h-53q-47 0 -83 11.5t-59.5 38t-31 70.5t5.5 110q20 104 80.5 163.5t189.5 88.5l117 -109l63 45l95 64q43 -12 78.5 -30t60 -44.5t34 -62t1.5 -83.5l-170 -925h-207l172 932l-96 -68 q-29 -18 -64 -17t-55 17z" />
<glyph unicode="&#xe47;" d="M-326 1276q-29 0 -45 -20.5t-20 -45.5q-6 -33 6 -57l104 59q25 14 50.5 15.5t46.5 -15.5l84 -59q4 12 10 31.5t2 36.5h162q0 -51 -16.5 -91t-47 -70t-70.5 -50.5t-85 -30.5l-101 78q-12 10 -28 0l-127 -80q-78 29 -126 86t-32 151q6 37 28.5 75t56.5 70t78 52.5t93 22.5 h471l-29 -158h-465z" />
<glyph unicode="&#xe48;" d="M8 1636h193l-56 -299h-190z" />
<glyph unicode="&#xe49;" d="M324 1495l-29 -158h-541l23 129l67 13q20 4 25 24q2 18 -22.5 22.5t-45.5 4.5l27 145q111 0 168 -36.5t41 -118.5q-2 -6 -2 -12.5t-4 -12.5h293z" />
<glyph unicode="&#xe4a;" d="M326 1483l-27 -146h-305l26 160q2 8 5.5 24.5t-0.5 26.5l-41 -37q-23 -18 -54.5 -21t-52.5 21l-35 41q-25 -43 -8.5 -69.5t60.5 -26.5l-23 -125h-47q-74 0 -115 49.5t-28 116.5q12 68 52 109t77 57q29 14 61.5 15t60.5 -27l21 -25l31 25q39 35 72.5 29.5t62.5 -25.5 q29 -16 47 -54t10 -85l-6 -33h156z" />
<glyph unicode="&#xe4b;" d="M-125 1440l27 149h108l21 107h168l-21 -107h111l-27 -149h-110l-19 -103h-166l19 103h-111z" />
<glyph unicode="&#xe4c;" d="M-37 1247q14 74 38 119t51.5 69.5t58 33t59.5 8.5h178l-31 -164h-167q-10 0 -23 -66h-164z" />
<glyph unicode="&#xe4d;" d="M-190 1122q8 39 29.5 74t51 60.5t66.5 41t76 15.5t70.5 -15.5t52 -41t30 -60.5t0.5 -74q-6 -39 -27.5 -72.5t-52 -59t-67.5 -41t-74 -15.5q-39 0 -70.5 15.5t-53 41t-29.5 59t-2 72.5zM-55 1122q-4 -23 8 -38t37 -15q23 0 41 15.5t22 37.5q4 25 -8 40.5t-37 15.5 q-23 0 -41 -15.5t-22 -40.5z" />
<glyph unicode="&#xe4e;" d="M96 1071q-4 0 -9 -22.5t-11 -59.5h-178q20 111 58 157t87 60q14 31 35.5 47.5t44 23.5t46.5 9t44 2h88l-29 -151h-92q-4 0 -6 -11.5t-12 -54.5h-66z" />
<glyph unicode="&#xe4f;" horiz-adv-x="1089" d="M528 434q-8 -41 14.5 -68.5t63.5 -27.5q39 0 72 27.5t41 68.5q6 39 -16.5 66.5t-61.5 27.5q-41 0 -74 -27.5t-39 -66.5zM401 434q8 45 34 85t61.5 71t80 48t89.5 17t81.5 -17t61.5 -48t35 -71t2 -85t-34 -86t-60.5 -71.5t-78.5 -48t-89 -17.5t-83 17.5t-62.5 48t-35 71.5 t-2.5 86zM303 434q-12 -66 2 -124t50 -102t90.5 -69.5t119.5 -25.5q68 0 130.5 25.5t114.5 69.5t88 102.5t48 123.5q12 66 -2 124t-50 102.5t-89 70t-121 25.5q-66 0 -129 -25.5t-115.5 -70t-88.5 -102.5t-48 -124zM160 434q18 98 69.5 182t126 147.5t165.5 99.5t190 36 q98 0 176 -36t129 -99.5t71.5 -147.5t2.5 -182t-70.5 -182t-126.5 -147.5t-165 -99.5t-189 -36t-176 36t-129.5 99.5t-71.5 147.5t-2 182z" />
<glyph unicode="&#xe50;" horiz-adv-x="954" d="M506 164q98 2 166.5 58.5t85.5 142.5q16 82 -32 137t-146 57q-98 -2 -167 -57.5t-85 -136.5q-16 -86 33 -142.5t145 -58.5zM614 743q100 0 174 -29.5t117 -80.5t57.5 -120t0.5 -148q-14 -80 -54.5 -150t-104 -121t-147.5 -80.5t-184 -29.5q-102 0 -175 29.5t-117 80.5 t-58 121t0 150t55 148.5t104.5 119.5t146.5 80.5t185 29.5z" />
<glyph unicode="&#xe51;" horiz-adv-x="954" d="M117 356q16 86 61 156t111.5 119t149.5 75.5t175 26.5q96 0 169 -29.5t118 -84t61.5 -131t-1.5 -169.5q-29 -166 -134.5 -283.5t-285.5 -201.5l-80 150q135 63 205.5 147t91.5 191q18 106 -33 168.5t-143 64.5q-43 0 -86 -14.5t-79 -40t-60.5 -62.5t-32.5 -82 q-16 -84 30.5 -119.5t149.5 -37.5l-29 -185q-115 0 -190.5 26t-117.5 72t-53 108t3 136z" />
<glyph unicode="&#xe52;" horiz-adv-x="1079" d="M453 944l-113 -610q-8 -43 13.5 -73t60.5 -49t88 -28.5t96 -9.5t95 9.5t88 28.5t68 49t36 73l16 94q8 37 5 74t-19 51l-80 -55q-39 -27 -76 -27q-45 0 -69 33l-33 43q-16 -14 -35 -44t-33 -65l-170 58q49 117 133 180t187 90l63 -90l111 90q137 -37 190 -125t33 -199 l-21 -108q-16 -88 -63 -151.5t-117.5 -105.5t-157.5 -62.5t-184 -20.5q-94 0 -179 19.5t-146.5 60.5t-91 104.5t-13.5 153.5l113 612h205z" />
<glyph unicode="&#xe53;" horiz-adv-x="1017" d="M653 436q-39 -27 -71.5 -24.5t-59.5 24.5l-98 90q-35 -29 -63.5 -70.5t-38.5 -90.5q-14 -80 24.5 -137.5t140.5 -59.5l-34 -180q-113 2 -183.5 36.5t-108.5 88t-47.5 120t3.5 132.5q12 66 46 125t81 110t106.5 90t124.5 66l146 -129l198 129q55 -27 100.5 -67t75 -89 t41 -108.5t-1.5 -124.5q-12 -61 -36.5 -116.5t-57.5 -107t-72 -94.5t-77 -80l-162 90q29 29 60.5 64t59 74t49 82t29.5 86q10 51 0 92t-36 69z" />
<glyph unicode="&#xe54;" horiz-adv-x="1064" d="M559 180q-39 51 -20 133q27 109 108.5 151t216.5 42h33l-33 -180h-24q-45 0 -74 -9.5t-35 -46.5q-10 -51 21.5 -69.5t93.5 -20.5h137l-33 -180h-491q-98 0 -167 27.5t-109 77t-52 117t2 147.5t52 148.5t96.5 117.5t137.5 77.5t177 28.5h330l190 154l115 -133l-250 -201 h-420q-88 -2 -147.5 -54t-75.5 -138q-16 -82 24.5 -135.5t129.5 -53.5h67z" />
<glyph unicode="&#xe55;" horiz-adv-x="1064" d="M705 754q-4 -23 8 -38.5t37 -15.5t43 15.5t22 38.5q4 25 -8 40t-37 15t-43 -15t-22 -40zM569 754q6 39 27.5 73.5t52.5 60t69 41t77 15.5q76 0 121 -53t32 -131l168 135l115 -133l-250 -201h-420q-88 -2 -147.5 -54t-75.5 -138q-16 -82 24.5 -135.5t129.5 -53.5h67 q-39 51 -20 133q27 109 108.5 151t216.5 42h33l-33 -180h-24q-45 0 -74 -9.5t-35 -46.5q-10 -51 21.5 -69.5t93.5 -20.5h137l-33 -180h-491q-98 0 -167 27.5t-109 77t-52 117t2 147.5q14 76 49 142.5t90.5 115.5t129 79.5t165.5 34.5z" />
<glyph unicode="&#xe56;" horiz-adv-x="1034" d="M211 238q4 51 31.5 93t64.5 72.5t76 52t66 33.5l63 -159q-29 -12 -56.5 -31.5t-31.5 -46.5q-2 -23 11.5 -37t36 -22.5t53 -11.5t61.5 -3q111 0 176 53.5t82 135.5q16 84 -28 141t-152 57q-68 0 -147 -10t-150 -55l-234 264l158 131l164 -182q47 18 111.5 26.5t129.5 8.5 q109 0 182.5 -30t116.5 -82t56.5 -121t-0.5 -148q-16 -80 -55.5 -148.5t-103 -119t-149.5 -79t-192 -28.5q-172 0 -260 65.5t-80 180.5z" />
<glyph unicode="&#xe57;" horiz-adv-x="1056" d="M1055 356q-12 -66 -44 -124t-71 -105t-80 -84t-74 -57l-145 92q27 25 60.5 54.5t63.5 65t53.5 74.5t31.5 82q10 55 -10.5 100.5t-53.5 73.5l-122 -84q-45 -29 -74 -28q-33 0 -62 28l-92 84q-37 -31 -70.5 -72.5t-43.5 -101.5q-16 -86 32.5 -133t134.5 -47l-32 -182 q-109 2 -179.5 34.5t-110.5 84t-51.5 115t1.5 128.5q14 76 51 139.5t88 113.5t112.5 90t123.5 71l139 -135q43 31 91 66.5t91 64.5q25 -10 52.5 -37t43.5 -53l52 272h202z" />
<glyph unicode="&#xe58;" horiz-adv-x="1030" d="M868 496q68 -29 103 -84.5t20 -132.5q-18 -94 -92 -173t-207 -120l-141 131l-199 -131q-55 25 -101 63.5t-77 88.5t-43 110.5t0 126.5q12 68 47 134t91.5 118.5t133 84t175.5 31.5h323l186 162l119 -131l-248 -211h-415q-80 -2 -134.5 -53t-70.5 -135q-8 -47 7 -91 t44 -73l127 88q16 10 32.5 18.5t39.5 8.5q29 0 61 -27l105 -98q39 37 43 71q4 25 -8.5 42.5t-34.5 25.5z" />
<glyph unicode="&#xe59;" horiz-adv-x="1144" d="M530 -16q-111 0 -192.5 29.5t-131.5 80.5t-68.5 121t-4.5 150t55 148.5t102.5 119.5t142.5 80.5t177 29.5q76 0 134.5 -29.5t93.5 -78.5q35 43 84 71.5t125 28.5h210l-32 -176h-193q-49 0 -63.5 -30.5t-22.5 -67.5l150 -395l-189 -91l-176 443q-29 70 -62.5 105.5 t-93.5 35.5q-90 0 -155.5 -56.5t-81.5 -137.5q-14 -82 48.5 -140.5t178.5 -58.5z" />
<glyph unicode="&#xe5a;" horiz-adv-x="1204" d="M1044 827h209l-151 -827h-209zM633 340q-39 -20 -81 -27.5t-77 -7.5q-80 0 -143.5 15.5t-103.5 49t-55 86t-3 124.5q20 111 95 179t198 68h88l-33 -178h-74q-35 0 -49 -18.5t-20 -50.5q-10 -53 26.5 -73t108.5 -20q150 0 178 146l35 194h209l-152 -827h-209z" />
<glyph unicode="&#xe5b;" horiz-adv-x="1943" d="M1939 502l-32 -176h-455l-20 39q-41 -53 -101.5 -124t-136.5 -157q-23 63 -52.5 129t-62.5 127q-82 -160 -215 -250t-295 -90q-117 0 -198.5 31.5t-129.5 89t-62.5 134.5t1.5 167q18 98 63.5 172t106 123t128 73.5t130.5 24.5q43 0 78 -11t62.5 -28.5t49 -38t40.5 -39.5 l-158 -147q-68 74 -111 74q-59 0 -117.5 -51.5t-76.5 -151.5q-12 -63 2 -107.5t46 -73t78 -42t99 -13.5q57 0 114.5 27t104.5 72t81 102t44 117q4 20 5 49t-7 74l150 94q47 -63 96 -144t82 -149q35 51 70.5 103.5t52.5 76.5l104 33l76 -139h366z" />
<glyph unicode="&#x2000;" horiz-adv-x="848" />
<glyph unicode="&#x2001;" horiz-adv-x="1696" />
<glyph unicode="&#x2002;" horiz-adv-x="848" />
<glyph unicode="&#x2003;" horiz-adv-x="1696" />
<glyph unicode="&#x2004;" horiz-adv-x="565" />
<glyph unicode="&#x2005;" horiz-adv-x="424" />
<glyph unicode="&#x2006;" horiz-adv-x="282" />
<glyph unicode="&#x2007;" horiz-adv-x="282" />
<glyph unicode="&#x2008;" horiz-adv-x="212" />
<glyph unicode="&#x2009;" horiz-adv-x="339" />
<glyph unicode="&#x200a;" horiz-adv-x="94" />
<glyph unicode="&#x200b;" />
<glyph unicode="&#x2010;" horiz-adv-x="688" d="M166 330l35 186h475l-35 -186h-475z" />
<glyph unicode="&#x2011;" horiz-adv-x="688" d="M166 330l35 186h475l-35 -186h-475z" />
<glyph unicode="&#x2012;" horiz-adv-x="688" d="M166 330l35 186h475l-35 -186h-475z" />
<glyph unicode="&#x2013;" horiz-adv-x="829" d="M133 338l33 178h686l-33 -178h-686z" />
<glyph unicode="&#x2014;" horiz-adv-x="1404" d="M180 338l33 178h1167l-32 -178h-1168z" />
<glyph unicode="&#x2018;" horiz-adv-x="419" d="M264 868l37 201l238 158l-68 -359h-207z" />
<glyph unicode="&#x2019;" horiz-adv-x="419" d="M518 1122l-37 -200l-237 -158l65 358h209z" />
<glyph unicode="&#x201c;" horiz-adv-x="749" d="M592 868l37 201l241 158l-67 -359h-211zM270 868l37 201l238 158l-68 -359h-207z" />
<glyph unicode="&#x201d;" horiz-adv-x="749" d="M522 1124l-37 -200l-237 -158l65 358h209zM846 1124l-37 -200l-236 -158l66 358h207z" />
<glyph unicode="&#x2022;" horiz-adv-x="919" d="M291 418q8 49 36.5 94t68.5 79t89.5 53.5t98.5 19.5t90 -19.5t68.5 -53.5t38 -79t1.5 -94q-10 -49 -37.5 -94t-67.5 -79t-88 -53.5t-97 -19.5t-90.5 19.5t-69 53.5t-39.5 79t-2 94z" />
<glyph unicode="&#x202f;" horiz-adv-x="339" />
<glyph unicode="&#x205f;" horiz-adv-x="424" />
<glyph unicode="&#x20ac;" horiz-adv-x="958" d="M938 328q-57 -170 -177 -254t-265 -84q-86 0 -150.5 30.5t-107.5 83.5q-39 45 -50.5 95.5t-9.5 109.5h-96l31 158h90l8 47l10 57h-90l29 158h98q20 55 50 104.5t81 90.5q133 117 301 116q145 0 233.5 -86t84.5 -252h-215q-4 61 -36 103.5t-104 42.5q-78 0 -131 -53 q-12 -12 -24.5 -27.5t-22.5 -38.5h178l-28 -158h-189l-10 -57l-8 -47h188l-31 -158h-180q2 -29 8.5 -45t16.5 -31q16 -23 44 -37t66 -14q72 0 120 42t73 104h215v0z" />
<glyph unicode="&#x2122;" horiz-adv-x="1325" d="M1159 393l58 303l-127 -161h-119l-66 161l-57 -303h-152l117 633h133l119 -305l229 305h133l-116 -633h-152zM549 895l-92 -502h-154l92 502h-184l25 131h518l-25 -131h-180z" />
<glyph unicode="&#x25cc;" horiz-adv-x="1148" d="M500 307l-86 -26l41 81q16 -32 45 -55zM666 709l55 77l22 -75q-18 2 -34 2q-23 0 -43 -4zM657 268l-47 -71l-22 71q16 -4 37 -4q16 0 32 4zM893 526l65 -39l-77 -30q6 14 10 30q2 19 2 39zM438 453l-69 39l86 38q-10 -23 -13 -43q-4 -18 -4 -34zM510 623l-8 77l71 -26 q-34 -20 -63 -51zM817 352l8 -71l-65 22q32 20 57 49zM825 674l93 26l-46 -79q-18 30 -47 53z" />
<glyph unicode="&#x25fc;" horiz-adv-x="778" d="M0 778h778v-778h-778v778z" />
<glyph unicode="&#xf700;" horiz-adv-x="788" d="M96 635q147 201 379 201q84 0 160 -27l190 152l125 -132l-186 -141q31 -72 12 -176l-94 -512h-207l47 264q6 29 -2 43.5t-39 14.5h-100l31 167h114h19.5t19.5 -2l2 19q18 145 -127 145q-47 0 -94 -25.5t-84 -82.5z" />
<glyph unicode="&#xf701;" d="M-729 1120h559l-29 -153h-559z" />
<glyph unicode="&#xf702;" d="M-729 1120h364l19 105h194l-47 -258h-559z" />
<glyph unicode="&#xf703;" d="M-758 967l29 153h225q6 39 26.5 72t49.5 57.5t62.5 39t70.5 14.5q74 0 118 -48.5t30 -121.5q-14 -72 -75 -119t-134 -47h-402zM-373 1128q-4 -20 7.5 -33.5t29.5 -13.5q23 0 40 13.5t22 33.5q4 23 -8.5 36.5t-34.5 13.5q-18 0 -35 -13.5t-21 -36.5z" />
<glyph unicode="&#xf704;" d="M-729 1120h164l18 105h166l-18 -105h63l19 105h165l-47 -258h-559z" />
<glyph unicode="&#xf705;" d="M-373 1296h197l-60 -319h-196z" />
<glyph unicode="&#xf706;" d="M-156 1153l-32 -174h-488l27 143l76 15q20 4 24 26q2 10 -5 16.5t-18.5 9.5t-24.5 4t-24 1l29 160q123 0 185.5 -40t46.5 -132q0 -14 -7 -29h211z" />
<glyph unicode="&#xf707;" d="M-98 1130l-29 -151h-235l32 174q2 10 5 26.5t-1 26.5l-45 -37q-25 -20 -60.5 -23t-57.5 23l-35 41q-29 -45 -10.5 -73.5t63.5 -28.5l-25 -135h-47q-84 0 -128 53t-29 127q14 74 57 117t82 63q31 14 67.5 16.5t63.5 -28.5l27 -27l32 27q41 35 78 31t70 -27q31 -18 51 -59 t10 -95l-8 -41h72z" />
<glyph unicode="&#xf708;" d="M-596 1090l31 165h121l22 117h186l-22 -117h121l-31 -165h-121l-20 -113h-187l21 113h-121z" />
<glyph unicode="&#xf709;" d="M-555 981q14 80 38.5 127t54.5 73.5t62.5 35t63.5 8.5h193l-31 -166h-180q-8 0 -13.5 -21.5t-13.5 -56.5h-174z" />
<glyph unicode="&#xf70a;" d="M-57 1307h196l-59 -320h-197z" />
<glyph unicode="&#xf70b;" d="M201 1161l-33 -174h-530l26 143l76 15q16 4 24 26q2 10 -5 16.5t-19 9.5t-25.5 4t-23.5 1l30 160q123 0 185.5 -40t46.5 -132q-2 -8 -2 -14.5t-4 -14.5h254z" />
<glyph unicode="&#xf70c;" d="M170 1141l-29 -154h-295l33 176q2 10 5 27.5t-1 28.5l-47 -39q-25 -20 -60.5 -23.5t-58.5 23.5l-36 43q-29 -47 -10.5 -76t65.5 -29l-27 -137h-49q-84 0 -128 54.5t-30 127.5q14 76 57.5 120t84.5 65q31 14 67.5 16t65.5 -29l26 -28l33 28q43 35 80 31t72 -27 q29 -20 49 -61t10 -94l-8 -43h131z" />
<glyph unicode="&#xf70d;" d="M-215 1100l31 166h121l22 116h184l-22 -116h121l-31 -166h-121l-20 -113h-185l21 113h-121z" />
<glyph unicode="&#xf70e;" d="M-283 987q14 80 39 127t53.5 71.5t61.5 32t63 7.5h289l-30 -166h-277q-12 0 -25 -72h-174z" />
<glyph unicode="&#xf70f;" horiz-adv-x="1400" d="M377 221q-10 -37 16 -37h92l-32 -184h-109q-117 0 -154.5 58.5t-19.5 160.5l45 238l-70 123q82 129 202 192.5t269 63.5q195 0 270 -91.5t46 -250.5l-31 -164q-14 -76 10.5 -117t81.5 -41q59 0 103.5 41t58.5 117l92 497h203l-94 -514q-12 -66 -43 -125t-79 -103 t-115.5 -69.5t-153.5 -25.5q-164 0 -231.5 84t-39.5 239l31 168q35 178 -143 174q-41 0 -100.5 -11t-104.5 -56l49 -99z" />
<glyph unicode="&#xf710;" d="M-276 1217q-6 -29 -4.5 -51.5t16.5 -22.5h522l-31 -168h-553q-31 0 -61.5 9t-52 34.5t-29.5 73t6 125.5h187z" />
<glyph unicode="&#xf711;" d="M-539 1122q8 39 30 74t52.5 60.5t67.5 41t76 15.5t70.5 -15.5t52 -41t29.5 -60.5t1 -74q-6 -39 -27.5 -72.5t-52 -59t-67.5 -41t-76 -15.5t-70.5 15.5t-53 41t-30 59t-2.5 72.5zM-403 1122q-4 -23 8 -38t37 -15t43 15.5t22 37.5q4 25 -8 40.5t-37 15.5t-43 -15.5 t-22 -40.5z" />
<glyph unicode="&#xf712;" d="M-528 1231q-25 0 -41.5 -19.5t-20.5 -42.5q-6 -27 8 -53l95 55q45 27 88 0l73 -55q4 12 9.5 29.5t1.5 34.5h153q2 -47 -14.5 -85t-44 -67t-65.5 -47t-81 -29l-90 74q-10 8 -28 0l-115 -76q-72 27 -117 81t-28 143q6 35 26.5 70.5t52 65t71.5 49t87 21.5h412l-27 -149 h-405z" />
<glyph unicode="&#xf713;" d="M-266 1636h192l-55 -299h-193z" />
<glyph unicode="&#xf714;" d="M172 1495l-29 -158h-544l22 129l68 13q20 4 24 24q2 18 -22.5 22.5t-44.5 4.5l26 145q111 0 169.5 -36.5t41.5 -118.5q-2 -6 -2 -12.5t-4 -12.5h295z" />
<glyph unicode="&#xf715;" d="M172 1483l-27 -146h-305l29 160q2 8 5 24.5t-1 26.5l-43 -37q-23 -18 -54.5 -21t-51.5 21l-35 41q-25 -43 -8.5 -69.5t59.5 -26.5l-23 -125h-47q-74 0 -114.5 49.5t-28.5 116.5q12 68 52 109t77 57q29 14 61.5 15t61.5 -27l20 -25l31 25q41 35 75 29.5t62 -25.5 q27 -16 45.5 -54t10.5 -85l-7 -33h156z" />
<glyph unicode="&#xf716;" d="M-401 1440l26 149h111l20 107h168l-20 -107h108l-24 -149h-111l-18 -103h-168l18 103h-110z" />
<glyph unicode="&#xf717;" d="M-315 1247q14 74 37.5 119t52 69.5t59.5 33t60 8.5h206l-30 -164h-197q-10 0 -23 -66h-165z" />
<glyph unicode="&#xf718;" d="M-393 -547q2 23 -10 23h-72l31 166h86q53 0 87.5 -7.5t53 -29t21.5 -60.5t-9 -102l-26 -145h-191z" />
<glyph unicode="&#xf719;" d="M-616 -520q0 4 -5 4h-59l29 156h96q84 0 106.5 -34t8.5 -116q-2 -10 0 -5t-2 -5q-2 -10 5 -18.5t23 -8.5t24.5 8.5t10.5 18.5l31 160h180l-31 -160q-16 -86 -85.5 -137.5t-157.5 -51.5q-92 0 -140.5 51.5t-33.5 135.5v2z" />
<glyph unicode="&#xf71a;" d="M-416 -463q10 49 50 84t90 35q49 0 78.5 -35t19.5 -84t-51 -84t-90 -35t-78 35t-19 84z" />
<glyph unicode="&#xf71d;" horiz-adv-x="1136" d="M950 623q-4 12 -16 21t-62 9l31 174h101q23 0 39 12.5t26 28.5l53 107h211l-82 -162q-43 -80 -102 -119q10 -23 6 -48t-12 -48l-215 -598h-172l-103 494l-282 -494h-176l10 827h209l-21 -477l250 477h141l76 -475z" />
<glyph unicode="&#xf881;" horiz-adv-x="1591" d="M1036 682q66 74 146 114t166 40q147 0 207.5 -74t33.5 -213l-157 -858h-205l157 854q10 49 -5 77.5t-66 28.5q-66 0 -133 -67zM782 -309h-204l145 790q35 178 -143 174q-41 0 -100.5 -11t-104.5 -56l49 -99l-49 -268q-10 -37 18 -37h92l-34 -184h-109q-117 0 -154.5 58.5 t-19.5 160.5l45 238l-70 123q82 129 202 192.5t269 63.5q195 0 269.5 -91.5t46.5 -250.5z" />
<glyph unicode="&#xf882;" horiz-adv-x="1607" d="M1053 682q66 74 145.5 114t165.5 40q147 0 207.5 -74t34.5 -213l-158 -858h-205l158 854q10 49 -5.5 77.5t-66.5 28.5q-66 0 -133 -67zM803 -307h-205l145 788q35 178 -143 174q-41 0 -100.5 -11t-104.5 -56l49 -99l-51 -270q-14 -74 -52 -118t-85 -67.5t-95 -29.5 t-85 -6l-4 180q37 -2 60.5 4t35.5 15.5t17 19.5t8 21l40 219l-69 123q82 129 201.5 192.5t269.5 63.5q195 0 269.5 -91.5t45.5 -250.5z" />
<glyph d="M-330 1071q-4 0 -9 -22.5t-11 -59.5h-180q20 111 58 157t89 60q14 31 35.5 47.5t44 23.5t46.5 9t44 2h78l-29 -151h-82q-4 0 -6 -11.5t-12 -54.5h-66z" />
<glyph horiz-adv-x="673" d="M-539 1122q8 39 30 74t52.5 60.5t67.5 41t76 15.5t70.5 -15.5t52 -41t29.5 -60.5t1 -74q-6 -39 -27.5 -72.5t-52 -59t-67.5 -41t-76 -15.5t-70.5 15.5t-53 41t-30 59t-2.5 72.5zM-403 1122q-4 -23 8 -38t37 -15t43 15.5t22 37.5q4 25 -8 40.5t-37 15.5t-43 -15.5 t-22 -40.5zM119 682q66 74 145.5 114t165.5 40q147 0 207.5 -74t34.5 -213l-101 -549h-204l100 545q10 49 -5.5 77.5t-66.5 28.5q-66 0 -133 -67z" />
<glyph horiz-adv-x="673" d="M-539 1122q8 39 30 74t52.5 60.5t67.5 41t76 15.5t70.5 -15.5t52 -41t29.5 -60.5t1 -74q-6 -39 -27.5 -72.5t-52 -59t-67.5 -41t-76 -15.5t-70.5 15.5t-53 41t-30 59t-2.5 72.5zM-403 1122q-4 -23 8 -38t37 -15t43 15.5t22 37.5q4 25 -8 40.5t-37 15.5t-43 -15.5 t-22 -40.5zM119 682q66 74 145.5 114t165.5 40q147 0 207.5 -74t34.5 -213l-101 -549h-204l100 545q10 49 -5.5 77.5t-66.5 28.5q-66 0 -133 -67z" />
<glyph d="M-555 1120h659l-28 -153h-660z" />
<glyph d="M-555 1120h469l20 115h191l-49 -268h-660z" />
<glyph d="M-584 967l29 153h326q6 39 26.5 73t49 58.5t62.5 38t71 13.5q72 0 115.5 -48.5t29.5 -121.5q-6 -37 -26.5 -67t-48 -52.5t-61.5 -34.5t-71 -12h-502zM-98 1128q-4 -20 7 -33.5t30 -13.5q23 0 40 13.5t21 33.5q2 23 -9 36.5t-34 13.5q-18 0 -34.5 -13.5t-20.5 -36.5z" />
<glyph d="M-555 1120h266l21 115h166l-21 -115h64l20 115h164l-49 -268h-660z" />
<glyph d="M-844 1120h719l-29 -153h-718z" />
<glyph d="M-844 1120h527l18 105h193l-48 -258h-718z" />
<glyph d="M-872 967l28 153h377q6 39 26.5 72t49.5 57.5t62.5 39t70.5 14.5q74 0 118 -48.5t29 -121.5q-14 -72 -74.5 -119t-133.5 -47h-553zM-336 1128q-4 -20 7.5 -33.5t29.5 -13.5q23 0 40 13.5t21 33.5q4 23 -8 36.5t-35 13.5q-18 0 -34.5 -13.5t-20.5 -36.5z" />
<glyph d="M-844 1120h324l18 105h166l-18 -105h63l19 105h166l-48 -258h-718z" />
<glyph d="M-219 1636h190l-55 -299h-190z" />
<glyph d="M80 1495l-29 -158h-528l22 129l68 13q20 4 25 24q2 18 -23 22.5t-45 4.5l27 145q111 0 169 -36.5t41 -118.5q-2 -6 -2 -12.5t-4 -12.5h279z" />
<glyph d="M162 1483l-27 -146h-305l29 160q2 8 5 24.5t-1 26.5l-43 -37q-23 -18 -54.5 -21t-52.5 21l-35 41q-25 -43 -8 -69.5t60 -26.5l-23 -125h-47q-74 0 -115 49.5t-28 116.5q12 68 52 109t77 57q29 14 61.5 15t61.5 -27l20 -25l31 25q41 35 74.5 29.5t62.5 -25.5 q29 -16 46 -54t9 -85l-6 -33h156z" />
<glyph d="M-358 1440l26 149h111l20 107h168l-20 -107h108l-26 -149h-109l-18 -103h-168l18 103h-110z" />
<glyph d="M-842 1120h946l-28 -153h-946z" />
<glyph d="M-842 1120h754l20 115h193l-49 -268h-946z" />
<glyph d="M-870 967l28 153h613q6 39 26.5 73t49 58.5t62.5 38t71 13.5q72 0 115.5 -48.5t29.5 -121.5q-6 -37 -26.5 -67t-48 -52.5t-61.5 -34.5t-71 -12h-788zM-98 1128q-4 -20 7 -33.5t30 -13.5q23 0 40 13.5t21 33.5q2 23 -9 36.5t-34 13.5q-18 0 -34.5 -13.5t-20.5 -36.5z" />
<glyph d="M-842 1120h553l21 115h166l-21 -115h64l20 115h164l-49 -268h-946z" />
<glyph d="M8 1636h193l-56 -299h-190z" />
<glyph d="M324 1495l-29 -158h-541l23 129l67 13q20 4 25 24q2 18 -22.5 22.5t-45.5 4.5l27 145q111 0 168 -36.5t41 -118.5q-2 -6 -2 -12.5t-4 -12.5h293z" />
<glyph d="M326 1483l-27 -146h-305l26 160q2 8 5.5 24.5t-0.5 26.5l-41 -37q-23 -18 -54.5 -21t-52.5 21l-35 41q-25 -43 -8.5 -69.5t60.5 -26.5l-23 -125h-47q-74 0 -115 49.5t-28 116.5q12 68 52 109t77 57q29 14 61.5 15t60.5 -27l21 -25l31 25q39 35 72.5 29.5t62.5 -25.5 q29 -16 47 -54t10 -85l-6 -33h156z" />
<glyph d="M-125 1440l27 149h108l21 107h168l-21 -107h111l-27 -149h-110l-19 -103h-166l19 103h-111z" />
<glyph d="M-639 1120h715l-29 -153h-715z" />
<glyph d="M-639 1120h522l21 115h192l-49 -268h-715z" />
<glyph d="M-352 946q14 80 39.5 128t56.5 75t64.5 36t64.5 9h289l-33 -176h-276q-14 0 -27 -72h-178z" />
<glyph horiz-adv-x="788" d="M752 287q-12 -72 -47 -128.5t-84.5 -94t-108.5 -57t-121 -19.5q-61 0 -113.5 19.5t-87 57t-49 94t-2.5 128.5l47 254q14 72 49 128t84.5 94t108.5 57.5t121 19.5q61 0 113.5 -19.5t87 -57.5t49 -94.5t0.5 -127.5zM598 539q10 53 -13.5 85.5t-68.5 32.5q-47 0 -83 -32.5 t-46 -85.5l-45 -250q-10 -55 13.5 -87t70.5 -32q45 0 81 31.5t46 87.5z" />
<glyph horiz-adv-x="727" d="M330 0l112 616l-239 -178l41 221l243 183h201l-156 -842h-202z" />
<glyph horiz-adv-x="788" d="M80 0l31 176l370 268q49 37 80 68t37 66q8 43 -16.5 68.5t-71.5 25.5q-41 0 -78 -28t-47 -91h-201q12 70 46 126t83 95t108.5 59.5t123.5 20.5q63 0 115.5 -19.5t87 -54.5t49 -86t2.5 -114q-16 -84 -78 -144.5t-150 -126.5l-172 -127h342l-32 -182h-629z" />
<glyph horiz-adv-x="788" d="M741 106q-14 -80 -52 -139t-90 -97t-115.5 -57.5t-131.5 -19.5q-66 0 -122 17.5t-95 56.5t-56.5 98.5t-2.5 143.5h200q-10 -68 23 -100t86 -32q57 0 100 34t54 98q12 61 -15.5 98t-93.5 37h-35l31 176h35q66 0 99.5 32.5t43.5 86.5q10 59 -18.5 88.5t-75.5 29.5 q-49 0 -88 -31.5t-53 -86.5h-203q14 72 51 128t87 94t111.5 58.5t127.5 20.5q70 0 125 -21.5t91 -60.5t50 -93.5t2 -119.5q-16 -80 -56 -130t-91 -79q45 -31 69 -85.5t8 -144.5z" />
<glyph horiz-adv-x="788" d="M651 0l-30 -164h-195l31 164h-420l35 188l483 697h223l-481 -692h195l34 188h195l-35 -188h94l-35 -193h-94z" />
<glyph horiz-adv-x="788" d="M743 150q-14 -76 -44.5 -141.5t-79 -115t-115 -77t-152.5 -27.5q-147 0 -210.5 81t-51.5 228h199q-4 -59 19.5 -92t78.5 -33q25 0 47.5 7.5t42.5 25.5q29 23 42 58.5t24 85.5q16 82 -3.5 129t-82.5 47q-53 0 -85 -28t-48 -56h-187l109 585h600l-33 -182h-414l-34 -190 q27 16 65.5 28.5t85.5 12.5q76 0 126 -27t78 -73t32.5 -109t-9.5 -137z" />
<glyph horiz-adv-x="788" d="M793 328q-14 -80 -52.5 -143.5t-91.5 -106.5t-119.5 -65.5t-138.5 -22.5t-129 22.5t-96 64.5t-53.5 104.5t0.5 142.5q14 78 54 146.5t89 141.5l283 416h225l-268 -387q23 4 38 5t31 1q55 0 102.5 -21.5t80 -62.5t46 -100t-0.5 -135zM588 326q12 70 -18.5 108.5 t-90.5 38.5q-59 0 -104 -38t-58 -109q-14 -72 17 -112t90 -40t104.5 40t59.5 112z" />
<glyph horiz-adv-x="788" d="M352 -201h-221l490 846h-250l-29 -149h-195l62 331h665l-32 -178z" />
<glyph horiz-adv-x="788" d="M784 303q-14 -78 -51 -136t-89 -98t-116.5 -59.5t-134.5 -19.5q-72 0 -129 19.5t-96 59.5t-54.5 98t-0.5 136q16 92 66 145.5t100 81.5q-16 14 -33 34t-27 46.5t-14 59t4 73.5q12 70 48 124.5t87 92t113.5 57t128.5 19.5q63 0 117.5 -19.5t91 -57t53 -92t4.5 -124.5 q-16 -82 -60 -133t-87 -80q37 -29 66 -82t13 -145zM647 737q10 51 -16.5 84t-77.5 33q-53 0 -94 -33t-51 -84q-10 -55 18.5 -88t81.5 -33q51 0 90 33t49 88zM580 305q10 55 -20 95t-85 40q-59 0 -104 -40t-56 -95q-10 -55 21 -93t90 -38q55 0 99.5 38t54.5 93z" />
<glyph horiz-adv-x="788" d="M145 502q14 80 52.5 142.5t92.5 106.5t120.5 66.5t138.5 22.5t129 -22.5t95 -64.5t52.5 -104.5t-0.5 -142.5q-14 -78 -54 -146.5t-89 -142.5l-281 -416h-225l268 387q-25 -4 -40 -5t-31 -1q-55 0 -102.5 21.5t-80 62.5t-46 100.5t0.5 135.5zM350 504q-12 -70 18.5 -109 t92.5 -39q59 0 103 38t57 110q14 72 -16 111.5t-89 39.5t-105.5 -39.5t-60.5 -111.5z" />
<glyph d="M-264 1288q-33 0 -50.5 -25.5t-21.5 -48.5q-2 -16 -1 -34.5t5 -30.5l99 57q23 12 47 13.5t43 -13.5l75 -57q6 12 11.5 30.5t1.5 34.5h155q2 -98 -60.5 -155.5t-150.5 -77.5l-90 76q-12 10 -28 0l-119 -78q-76 27 -120 88t-28 152q6 35 28 73.5t54.5 71.5t74.5 54.5 t89 23.5h422l-29 -154h-407z" />
<glyph d="M-281 1196q-6 -29 -4 -52.5t17 -23.5h596l-29 -153h-627q-31 0 -61.5 7t-53 30.5t-30.5 68.5t6 123h186z" />
<glyph d="M-279 1575h193l-55 -299h-193z" />
<glyph d="M-109 1434l-28 -158h-441l25 129l68 12q18 4 22 25q2 18 -22.5 22t-44.5 4l28 146q111 0 168.5 -37t40.5 -119q0 -12 -6 -24h190z" />
<glyph d="M-104 1417l-27 -141h-219l28 156q2 8 4.5 23t0.5 26l-43 -35q-23 -18 -53.5 -21.5t-49.5 21.5l-35 39q-25 -41 -8 -67.5t57 -26.5l-22 -121h-45q-72 0 -112 48t-27 114q12 66 51 105.5t76 55.5q27 14 59.5 15.5t58.5 -27.5l19 -25l31 25q39 33 71.5 29t63.5 -25 q27 -16 45 -53t10 -82l-6 -33h72z" />
<glyph d="M-414 1378l29 150h111l18 106h168l-18 -106h108l-27 -150h-110l-19 -102h-168l19 102h-111z" />
<glyph d="M-2 1575h190l-55 -299h-190z" />
<glyph d="M311 1434l-28 -158h-541l25 129l67 12q18 4 23 25q2 18 -22.5 22t-45.5 4l29 146q111 0 167 -37t40 -119q0 -12 -7 -24h293z" />
<glyph d="M313 1421l-26 -145h-305l26 160q2 8 5 24.5t-1 26.5l-39 -37q-25 -18 -55.5 -21.5t-50.5 21.5l-37 41q-25 -43 -7.5 -69.5t60.5 -26.5l-24 -125h-47q-74 0 -115 49t-29 117q14 68 53 108.5t76 57.5q29 14 63 15t60 -28l21 -24l30 24q39 35 73 30t65 -26q29 -16 47 -54 t8 -85l-6 -33h155z" />
<glyph d="M-137 1378l28 150h109l18 106h168l-18 -106h111l-29 -150h-111l-18 -102h-166l18 102h-110z" />
</font>
</defs>
</svg>
